<?xml version="1.0" standalone="no"?>
<!DOCTYPE svg PUBLIC "-//W3C//DTD SVG 20010904//EN"
 "http://www.w3.org/TR/2001/REC-SVG-20010904/DTD/svg10.dtd">
<svg version="1.0" xmlns="http://www.w3.org/2000/svg"
 width="714.000000pt" height="614.000000pt" viewBox="0 0 714.000000 614.000000"
 preserveAspectRatio="xMidYMid meet">

<g transform="translate(0.000000,614.000000) scale(0.100000,-0.100000)"
fill="#000000" stroke="none">
<path d="M3355 5708 c-225 -110 -428 -207 -450 -214 -22 -8 -70 -19 -107 -24
-75 -11 -49 7 -435 -292 -171 -132 -196 -149 -237 -152 -35 -4 -97 -34 -287
-143 -257 -147 -309 -185 -357 -260 -30 -47 -67 -155 -76 -223 -2 -19 -16 -89
-31 -155 -97 -444 -151 -700 -162 -770 -3 -16 -20 -102 -38 -190 -18 -88 -36
-180 -39 -205 -7 -58 -37 -184 -65 -279 l-22 -73 20 -22 c12 -12 21 -27 21
-32 0 -5 -87 -59 -193 -121 l-192 -112 3 -303 c3 -212 7 -306 15 -314 11 -11
765 -449 987 -574 52 -29 147 -83 210 -120 63 -37 207 -121 320 -187 403 -236
728 -423 734 -423 3 0 22 -11 42 -25 43 -29 65 -31 98 -10 22 15 26 14 59 -8
66 -45 173 -42 225 6 27 25 28 56 2 107 -11 22 -20 41 -20 44 0 4 44 31 120
74 25 14 56 33 69 44 13 10 27 18 31 18 11 0 154 81 160 90 3 5 41 27 84 50
44 23 91 50 104 61 14 10 29 19 34 19 18 0 63 41 68 63 4 14 38 40 100 76 52
29 398 229 768 443 370 214 679 391 686 394 8 3 16 -5 20 -21 4 -14 21 -34 39
-45 45 -28 149 -28 195 0 17 11 32 23 33 27 5 53 2 71 -23 107 -15 23 -28 48
-28 56 0 18 70 60 100 60 25 0 115 44 127 62 4 7 10 85 13 172 l5 159 59 36
c56 34 69 51 205 253 328 488 369 559 378 656 5 53 0 73 -62 237 -70 189 -223
552 -275 654 -31 63 -83 111 -119 111 -12 0 -137 67 -279 149 -141 82 -666
386 -1167 675 -500 290 -917 535 -925 545 -21 27 -74 51 -107 50 -15 0 -212
-91 -438 -201z m475 182 c8 -5 12 -12 8 -15 -13 -13 -817 -393 -865 -409 -28
-9 -82 -20 -120 -24 l-69 -8 -260 -208 c-142 -115 -264 -213 -270 -218 -12 -9
-44 -1 -44 12 0 8 479 380 530 412 14 9 48 19 77 22 28 4 76 15 106 25 49 17
375 173 737 353 145 72 147 72 170 58z m108 -88 c74 -42 866 -501 1307 -757
154 -89 434 -251 623 -360 188 -108 342 -200 342 -204 0 -4 -65 -37 -144 -75
l-144 -68 -483 280 c-701 404 -985 569 -1059 612 -36 21 -229 133 -430 249
-201 117 -366 215 -368 219 -2 7 260 139 281 141 4 1 38 -16 75 -37z m-418
-170 l0 -58 -181 -104 c-100 -58 -374 -216 -608 -352 l-426 -246 -12 36 c-7
20 -17 45 -23 54 -8 15 29 49 257 232 l267 214 66 7 c104 11 170 38 585 240
39 18 71 34 73 34 1 1 2 -25 2 -57z m580 -257 c289 -167 779 -450 1090 -630
311 -180 598 -346 637 -368 71 -41 88 -57 59 -57 -7 0 -105 53 -217 118 -112
65 -440 255 -729 422 -1215 702 -1394 807 -1398 820 -3 9 1 11 14 6 10 -4 255
-144 544 -311z m307 -221 c472 -273 957 -554 1078 -624 121 -70 255 -147 297
-171 43 -24 78 -47 78 -51 0 -4 -17 -12 -39 -19 l-38 -11 -489 282 c-269 156
-642 372 -829 480 -187 108 -472 273 -632 366 l-293 169 0 37 c0 21 2 38 5 38
2 0 391 -223 862 -496z m-851 387 c8 -8 304 -180 1604 -931 289 -166 543 -313
564 -326 l39 -22 -34 -15 c-19 -8 -101 -47 -183 -86 -151 -73 -220 -96 -313
-104 -47 -4 -50 -2 -40 14 15 24 -7 49 -43 49 -43 0 -60 -10 -60 -36 0 -23 7
-27 63 -36 14 -2 2 -16 -46 -55 -36 -29 -77 -55 -91 -59 -14 -3 -32 -18 -39
-33 -9 -19 -21 -27 -47 -29 -43 -4 -60 -18 -57 -44 1 -15 -41 -55 -170 -160
l-172 -139 -25 16 c-21 14 -26 25 -26 59 -1 57 -32 121 -72 146 -42 26 -107
26 -160 0 -23 -11 -46 -20 -51 -20 -7 0 -425 239 -717 410 -36 21 -227 131
-425 245 -198 114 -396 229 -440 255 -44 25 -133 77 -198 115 -65 37 -116 72
-114 78 1 5 90 60 197 123 799 463 1026 593 1036 594 5 0 14 -4 20 -9z m-1327
-556 c34 -29 55 -102 49 -170 -3 -38 -4 -40 -38 -40 l-35 0 -3 65 c-4 94 -35
120 -102 85 -52 -27 -444 -257 -472 -277 -27 -18 -95 -108 -83 -108 3 0 -1
-10 -9 -22 -14 -22 -37 -129 -151 -690 -25 -123 -54 -261 -65 -308 -37 -160
-81 -383 -77 -394 2 -6 -1 -27 -8 -46 -7 -19 -20 -75 -30 -125 -9 -49 -21 -95
-26 -101 -10 -12 -56 -7 -64 6 -3 4 22 140 56 301 33 162 107 524 164 806 115
570 108 539 142 610 37 77 106 140 229 210 60 33 125 70 144 81 19 11 82 47
140 81 91 53 112 61 157 61 41 0 58 -5 82 -25z m-160 -182 c-34 -59 -65 -110
-68 -113 -3 -3 -7 -9 -8 -15 -1 -8 -106 -196 -185 -331 -9 -16 -66 -114 -127
-219 l-111 -190 0 -343 0 -342 -25 -12 c-14 -6 -27 -9 -29 -7 -9 8 -26 395
-26 573 l0 178 92 152 c50 83 112 185 137 226 25 41 47 77 51 80 3 3 41 61 85
130 129 205 203 307 237 329 18 11 34 18 36 16 2 -2 -24 -52 -59 -112z m111
44 c0 -40 -3 -43 -50 -69 -28 -16 -50 -25 -50 -21 0 18 82 143 91 138 5 -4 9
-25 9 -48z m-212 -42 c-6 -14 -15 -25 -20 -25 -4 0 -8 -4 -8 -9 0 -11 -200
-323 -213 -332 -5 -3 -8 -9 -8 -13 1 -3 -14 -30 -32 -59 -18 -28 -75 -121
-126 -205 l-94 -154 6 -371 c4 -205 9 -383 12 -397 6 -22 1 -28 -39 -47 -60
-30 -79 -65 -61 -117 18 -51 51 -84 92 -92 32 -6 34 -9 31 -43 -3 -35 -7 -38
-153 -123 -82 -48 -153 -88 -157 -88 -17 0 33 280 142 790 11 52 60 291 109
530 54 264 97 453 110 481 33 69 76 106 221 189 72 41 143 83 158 92 38 23 43
22 30 -7z m212 -45 c0 -11 -6 -30 -12 -43 -7 -12 -14 -23 -14 -25 -1 -2 -16 6
-34 17 l-32 19 38 26 c48 31 54 31 54 6z m110 -13 c0 -15 -50 -27 -75 -17 -39
15 -29 25 25 25 28 0 50 -3 50 -8z m48 -24 c6 -19 -25 -16 -32 3 -4 11 -1 14
11 12 9 -2 18 -9 21 -15z m632 -539 c465 -268 880 -508 923 -532 42 -24 79
-48 82 -52 2 -4 -15 -18 -38 -30 l-43 -23 -70 28 c-116 46 -243 46 -290 0 -44
-44 -22 -121 58 -210 l46 -51 -23 -71 c-13 -40 -34 -90 -47 -112 -19 -34 -21
-42 -10 -63 11 -19 9 -41 -10 -133 -13 -60 -27 -109 -31 -109 -14 3 -468 267
-473 276 -3 4 31 73 76 153 45 79 81 147 80 151 -1 4 3 10 9 13 6 4 51 76 101
161 92 159 107 205 78 242 -7 9 -74 51 -148 94 -74 42 -153 88 -175 101 -33
19 -54 23 -122 23 -45 0 -105 -5 -134 -11 -76 -16 -146 9 -199 72 -24 28 -54
52 -76 59 -49 17 -120 4 -170 -30 -23 -15 -61 -31 -84 -35 -42 -7 -43 -7 -35
16 4 13 10 56 12 94 4 61 1 74 -19 104 -35 52 -71 74 -131 79 -86 7 -158 -39
-203 -128 -44 -89 -34 -191 25 -244 l21 -19 -53 -48 c-29 -26 -61 -66 -72 -88
-10 -23 -21 -41 -25 -41 -4 0 -48 24 -98 53 l-90 52 16 30 c11 22 390 681 429
748 3 4 19 -1 36 -11 18 -11 412 -239 877 -508z m-700 517 c0 -16 -19 -23 -40
-16 -30 10 -24 25 10 25 17 0 30 -4 30 -9z m430 -186 c179 -104 523 -303 765
-443 242 -140 491 -283 553 -319 61 -36 112 -66 112 -68 0 -7 -108 -65 -119
-65 -7 0 -270 149 -584 331 -315 182 -717 415 -894 517 l-323 187 43 6 c23 3
57 15 76 27 19 11 37 19 40 18 3 -2 152 -88 331 -191z m3593 -48 c15 -10 -40
-39 -398 -206 -229 -106 -443 -202 -476 -212 -34 -11 -89 -19 -124 -19 -73 0
-37 26 -453 -325 l-249 -210 -121 -240 c-67 -132 -148 -289 -180 -350 -161
-303 -187 -352 -204 -380 -16 -26 -18 -54 -18 -225 0 -266 -33 -767 -56 -843
-19 -63 -24 45 -24 541 l0 547 48 82 c26 45 151 262 277 483 l230 401 238 191
c148 119 234 194 227 198 -8 5 -9 10 -2 14 6 3 12 1 14 -6 3 -7 40 18 92 60
82 67 90 72 136 72 76 0 161 32 432 161 139 67 285 136 323 154 39 18 112 54
164 79 52 25 97 46 101 46 3 0 14 -6 23 -13z m55 -39 c17 -17 15 -23 -5 -25
-10 -1 -135 -56 -278 -123 -627 -293 -642 -298 -754 -304 l-61 -2 -298 -251
c-164 -138 -303 -257 -309 -265 -6 -7 -59 -108 -117 -223 -58 -116 -130 -257
-161 -315 -31 -58 -97 -180 -146 -272 l-89 -167 0 -143 c0 -193 -17 -517 -35
-696 -21 -203 -23 -212 -47 -212 -16 0 -19 5 -14 28 25 124 56 592 56 852 l0
177 42 74 c79 141 159 296 318 609 l159 315 197 165 c109 91 243 203 298 250
56 47 109 92 120 100 11 8 45 15 86 17 38 1 88 7 112 13 24 7 174 73 333 147
160 75 319 149 355 166 36 16 97 45 135 63 79 37 86 39 103 22z m81 -224 c160
-364 271 -658 271 -719 0 -24 -7 -61 -15 -84 -16 -45 -135 -235 -350 -556
-114 -171 -149 -215 -185 -238 -25 -16 -310 -181 -635 -369 -324 -187 -754
-435 -955 -551 -201 -116 -389 -224 -419 -240 l-54 -30 7 50 c27 204 38 378
43 668 l5 330 104 192 c58 106 173 327 256 493 l151 301 141 117 c78 64 188
157 246 207 231 197 206 181 291 188 41 4 107 17 145 31 58 20 485 216 779
356 44 21 83 39 86 39 4 1 43 -83 88 -185z m-4254 134 c23 -22 37 -45 40 -68
l5 -35 -11 30 c-14 36 -39 66 -49 60 -4 -3 -22 0 -39 6 -38 13 -88 -1 -133
-39 -39 -33 -58 -78 -58 -141 0 -42 5 -56 31 -86 17 -19 27 -35 21 -35 -18 0
-61 60 -68 95 -3 19 0 58 7 87 7 29 12 60 11 68 -1 8 1 10 4 4 3 -7 17 0 35
17 43 40 100 56 152 42 37 -10 40 -10 23 3 -28 20 -95 17 -134 -6 -37 -23 -46
-25 -36 -9 12 20 68 38 117 39 40 0 53 -5 82 -32z m-75 -13 c0 -3 -15 -11 -34
-19 -96 -40 -137 -153 -78 -215 27 -29 72 -50 72 -34 0 5 -10 9 -21 10 -21 2
-59 30 -59 43 0 12 51 30 97 34 53 5 63 12 63 41 0 34 -14 38 -52 15 -32 -19
-97 -50 -104 -50 -2 0 -4 12 -4 26 0 23 3 25 25 20 20 -5 25 -3 25 13 0 11 -6
22 -12 24 -9 4 -5 12 12 26 18 14 27 16 33 8 5 -9 11 -7 21 6 18 23 42 22 49
-4 4 -15 11 -19 25 -14 27 8 36 -9 20 -35 -11 -17 -11 -22 1 -29 17 -11 5 -52
-14 -45 -17 7 -30 -15 -16 -29 14 -14 -15 -48 -34 -40 -8 2 -24 -5 -36 -16
-56 -52 -139 -3 -139 82 0 75 62 165 125 180 30 7 35 7 35 2z m-192 -127 c-15
-64 1 -117 47 -157 40 -35 32 -42 -10 -9 -50 39 -66 104 -44 181 15 54 20 42
7 -15z m212 -13 c0 -8 -7 -15 -16 -15 -14 0 -14 3 -4 15 7 8 14 15 16 15 2 0
4 -7 4 -15z m414 -50 c41 -20 87 -65 65 -65 -8 0 -20 5 -26 11 -6 6 -54 13
-107 16 -53 3 -96 10 -96 14 0 15 50 35 91 37 21 2 54 -4 73 -13z m2620 -41
c27 -10 18 -24 -15 -24 -27 0 -30 2 -19 15 14 17 13 17 34 9z m-2539 -49 c191
-56 298 -157 299 -280 1 -93 -61 -168 -193 -234 -243 -123 -625 -93 -808 63
-48 42 -93 125 -93 173 0 106 113 217 277 272 98 33 158 40 298 36 104 -2 148
-9 220 -30z m409 -36 c22 -6 100 -45 174 -88 l134 -76 -89 -7 c-90 -6 -150
-22 -239 -64 -64 -30 -64 -30 -64 4 -1 47 -37 111 -95 167 l-56 54 43 9 c60
14 146 14 192 1z m-1314 -170 l90 -51 0 -74 c0 -41 -4 -74 -10 -74 -5 0 -47
22 -93 50 -87 51 -97 64 -97 125 0 31 10 75 16 75 2 0 45 -23 94 -51z m3220 1
c0 -5 -7 -10 -16 -10 -8 0 -12 5 -9 10 3 6 10 10 16 10 5 0 9 -4 9 -10z
m-1549 -37 c7 -7 9 -22 5 -39 -7 -25 -10 -26 -49 -21 -72 10 -191 -18 -295
-67 -51 -26 -96 -46 -98 -46 -3 0 -4 21 -2 47 l3 48 65 32 c36 18 90 39 120
48 65 17 233 16 251 -2z m1024 -75 c38 -30 55 -76 55 -153 l0 -65 -34 0 -33 0
-6 68 c-7 75 -31 108 -71 96 -44 -13 -493 -278 -527 -311 -60 -58 -83 -120
-129 -348 -23 -115 -44 -220 -47 -232 -4 -17 -12 -23 -32 -23 -14 0 -31 4 -38
8 -17 11 79 469 112 538 40 83 96 137 208 202 376 220 419 242 467 242 33 0
55 -6 75 -22z m-1064 -7 l26 -6 -46 -82 -46 -83 -83 0 c-92 0 -172 -22 -259
-70 l-52 -29 30 55 c16 31 29 64 29 75 0 34 188 123 294 139 62 9 74 9 107 1z
m-1625 -58 c66 -38 83 -53 84 -71 0 -31 25 -89 55 -128 22 -28 23 -36 14 -58
-11 -24 -13 -24 -40 -11 -39 21 -56 19 -84 -10 -18 -17 -25 -35 -25 -62 l0
-38 -47 0 c-27 0 -51 5 -55 10 -9 12 -11 377 -2 399 3 9 8 16 11 16 3 0 43
-21 89 -47z m284 -153 c107 -54 205 -74 370 -74 122 0 159 4 230 23 108 30
190 71 246 123 24 22 44 36 44 31 0 -18 -96 -101 -146 -126 -265 -134 -682
-95 -858 81 -61 61 -59 77 3 19 27 -25 76 -60 111 -77z m2359 5 c-1 -22 -4
-52 -8 -66 l-6 -27 -107 62 c-59 33 -108 63 -108 66 0 3 26 19 58 37 l57 31
57 -31 c56 -31 58 -33 57 -72z m-615 47 c6 -5 30 -14 53 -21 56 -15 69 -35 16
-24 -21 4 -58 7 -83 8 -44 0 -46 -2 -70 -47 l-25 -47 24 -25 c20 -21 22 -28
11 -41 -12 -14 -16 -13 -37 7 -42 40 -83 110 -83 143 0 52 30 66 124 59 32 -2
64 -8 70 -12z m-507 -28 c14 -4 20 -11 16 -21 -5 -12 -18 -13 -73 -8 -48 5
-85 2 -130 -9 -83 -21 -88 -13 -8 12 91 30 151 38 195 26z m1020 -95 c87 -51
160 -93 162 -95 2 -2 -28 -59 -67 -126 -38 -68 -73 -133 -77 -145 -3 -13 -12
-29 -20 -36 -7 -7 -36 -55 -65 -106 -42 -74 -55 -90 -62 -77 -11 20 -42 21
-59 0 -17 -20 0 -49 29 -48 19 0 19 -2 -7 -46 -74 -132 -116 -200 -122 -198
-50 21 -306 180 -320 199 -18 26 -18 29 2 132 l21 104 42 -23 c22 -13 47 -24
53 -24 11 0 73 95 73 112 0 12 -73 58 -92 58 -10 0 -25 -15 -34 -32 -19 -36
-34 -21 -16 15 6 12 13 46 16 76 3 29 8 56 10 59 3 2 45 -16 94 -42 108 -55
183 -76 277 -76 68 0 71 1 93 33 30 45 28 91 -7 152 -27 47 -97 121 -150 158
-14 9 -23 18 -20 20 16 12 75 47 81 47 4 0 78 -41 165 -91z m-556 47 c-8 -10
-4 -16 17 -26 24 -12 25 -14 7 -18 -11 -2 -26 -9 -34 -15 -11 -10 -13 -7 -7
13 7 24 6 24 -8 6 -27 -34 -26 -12 1 34 15 24 28 39 31 32 2 -7 -1 -19 -7 -26z
m769 -3 c0 -16 -36 -26 -66 -19 -42 11 -28 31 21 31 28 0 45 -4 45 -12z
m-2465 -94 c223 -108 572 -98 769 22 50 31 69 34 39 6 -32 -29 -143 -78 -221
-98 -173 -44 -376 -33 -540 31 -74 29 -192 109 -192 131 0 6 19 -6 43 -26 23
-20 69 -49 102 -66z m1197 92 l27 -6 -101 -175 c-55 -96 -101 -176 -102 -178
-2 -1 -33 14 -69 35 l-65 37 1 66 c1 36 -1 83 -5 106 l-8 41 58 28 c104 51
183 65 264 46z m813 -51 c84 -58 165 -164 165 -217 0 -26 -6 -36 -30 -48 -37
-19 -70 -19 -145 0 -58 15 -186 71 -233 101 -18 12 -20 18 -12 34 10 18 13 18
68 -14 71 -42 175 -86 202 -86 14 0 27 15 45 49 21 43 23 51 9 62 -8 7 -13 18
-10 25 5 13 -6 24 -84 77 -22 16 -38 33 -35 38 9 13 12 12 60 -21z m427 -2
c-8 -8 -17 -8 -34 0 -22 10 -21 11 12 11 26 1 31 -2 22 -11z m-452 -59 c16
-14 19 -19 8 -15 -23 7 -42 -26 -26 -42 7 -7 19 -12 28 -12 9 0 27 -12 41 -26
l24 -26 -25 7 c-13 4 -30 14 -38 22 -21 20 -47 12 -46 -15 0 -12 -1 -22 -4
-22 -11 0 -148 73 -162 86 -24 23 3 16 63 -17 31 -17 61 -28 67 -24 18 11 11
34 -15 50 -14 8 -37 22 -51 31 -14 8 -23 18 -20 21 3 3 13 0 21 -7 18 -15 34
-4 40 26 2 11 4 20 4 21 2 4 66 -37 91 -58z m-2073 15 c7 -79 25 -132 53 -159
19 -19 30 -39 30 -57 0 -34 -3 -34 -42 -6 -47 33 -88 105 -88 153 0 83 41 143
47 69z m921 -51 c-3 -76 -4 -78 -28 -78 -23 0 -25 4 -28 58 -3 50 0 60 20 77
13 11 27 19 31 20 4 0 7 -35 5 -77z m1612 50 c0 -14 -26 -18 -34 -4 -7 11 0
18 19 18 8 0 15 -6 15 -14z m-2632 -9 c12 -8 22 -22 22 -30 0 -12 -5 -11 -26
5 -15 12 -36 21 -48 21 -17 0 -18 2 -6 10 21 13 32 12 58 -6z m1051 -50 c-4
-66 -19 -65 -19 1 0 36 4 54 10 50 6 -4 10 -27 9 -51z m-881 -29 c3 -61 1 -67
-13 -55 -19 16 -22 134 -2 128 7 -3 13 -29 15 -73z m762 -2 c0 -32 -5 -65 -10
-73 -7 -10 -10 7 -10 58 0 41 4 72 10 72 6 0 10 -26 10 -57z m-970 40 c-1 -19
-19 -35 -34 -30 -21 8 -9 37 15 37 10 0 19 -3 19 -7z m285 -104 c0 -87 -1 -94
-20 -94 -19 0 -20 8 -23 102 l-3 103 23 -9 c22 -8 23 -14 23 -102z m655 38 c0
-58 -4 -77 -18 -90 -27 -25 -120 -63 -185 -77 -60 -12 -250 -16 -267 -5 -6 3
-10 46 -10 96 l0 89 114 0 c116 0 228 16 301 44 65 24 65 24 65 -57z m-889 37
c19 -17 15 -44 -6 -44 -7 0 -18 14 -24 30 -11 34 1 40 30 14z m303 0 c13 -5
16 -22 16 -85 0 -43 -2 -79 -5 -79 -3 0 -17 7 -30 16 -23 15 -25 23 -25 85 0
71 5 78 44 63z m94 -111 l3 -92 -31 10 -30 11 0 85 0 84 28 -3 27 -3 3 -92z
m-514 56 c46 -55 37 -76 -63 -146 -49 -35 -92 -63 -95 -63 -3 0 -6 10 -6 22 0
28 -45 104 -67 113 -13 5 8 19 82 55 55 26 105 49 112 49 6 1 23 -13 37 -30z
m74 8 c4 -22 -27 -35 -39 -16 -5 8 -9 20 -9 27 0 20 44 10 48 -11z m1042 -37
c0 -17 -95 -94 -145 -115 -104 -46 -172 -59 -315 -59 -130 -1 -194 10 -287 45
l-26 10 22 15 c21 15 27 14 84 -12 59 -28 69 -29 202 -29 117 0 152 4 210 22
83 26 160 74 180 113 11 22 19 26 44 22 17 -2 31 -8 31 -12z m-999 -3 c-1 -12
-15 -9 -19 4 -3 6 1 10 8 8 6 -3 11 -8 11 -12z m142 -100 c70 -46 149 -75 243
-92 267 -48 526 28 649 190 15 19 15 19 9 -10 -22 -100 -133 -186 -304 -232
-82 -22 -308 -25 -390 -4 -139 35 -265 117 -301 196 -28 61 -23 74 11 28 17
-23 54 -57 83 -76z m-148 60 c18 -6 43 -29 61 -56 39 -58 175 -153 257 -180
94 -32 205 -43 308 -31 104 12 181 38 265 92 60 37 146 120 156 148 3 10 20 5
71 -24 l67 -37 0 -84 c0 -101 -20 -82 235 -229 99 -57 179 -109 177 -115 -1
-7 -5 -38 -8 -69 -6 -52 -4 -59 20 -81 14 -14 26 -21 26 -17 0 5 6 3 14 -3 8
-6 36 -14 62 -17 41 -5 54 -2 77 16 15 12 27 28 27 37 0 21 10 16 182 -84
l148 -86 0 -358 c0 -252 -3 -359 -11 -359 -6 0 -198 109 -427 241 -230 133
-520 301 -647 374 -1270 732 -1270 732 -1273 764 -3 26 5 35 72 85 53 39 76
63 76 77 0 16 4 19 18 14 9 -5 31 -13 47 -18z m-326 -42 c17 -20 31 -41 31
-48 0 -7 3 -21 6 -33 7 -27 -19 -54 -54 -54 -20 0 -23 3 -14 12 30 30 -6 108
-50 108 -21 0 -24 20 -6 38 22 22 55 13 87 -23z m-45 -67 c5 -15 6 -31 2 -35
-9 -10 -46 33 -46 54 0 25 34 10 44 -19z m2326 17 c36 -19 37 -30 5 -77 l-25
-37 -34 20 -34 20 25 44 c14 25 27 45 29 45 3 0 18 -7 34 -15z m-450 -188 c85
-49 157 -91 159 -93 2 -2 -8 -17 -23 -34 -14 -18 -29 -42 -32 -55 -5 -22 -14
-18 -205 93 l-199 116 0 72 0 73 73 -41 c39 -23 142 -82 227 -131z m-1760 84
c0 -16 -6 -34 -14 -40 -11 -9 -15 -6 -19 16 -5 27 7 53 24 53 5 0 9 -13 9 -29z
m94 -40 c3 -5 -45 -38 -107 -73 -61 -36 -250 -144 -418 -241 -230 -134 -314
-177 -339 -177 -28 0 20 31 281 182 173 100 366 212 429 249 113 66 143 78
154 60z m46 -39 c0 -4 -73 -50 -162 -102 -90 -51 -271 -156 -402 -232 -142
-82 -246 -136 -255 -133 -19 7 -101 -42 719 431 73 43 100 52 100 36z m55 -25
c11 -8 47 -29 80 -46 70 -38 768 -442 1230 -711 176 -103 399 -232 495 -287
236 -136 305 -179 303 -188 -1 -4 -61 -43 -135 -85 -73 -42 -252 -145 -396
-229 -168 -97 -270 -150 -280 -146 -9 3 -151 84 -317 179 -165 96 -412 239
-550 318 -1195 688 -1268 732 -1249 746 11 8 168 99 349 204 182 104 355 204
385 223 65 40 61 38 85 22z m2343 -39 c-6 -18 -28 -21 -28 -4 0 9 7 16 16 16
9 0 14 -5 12 -12z m-2952 -8 c30 0 33 -33 7 -79 -19 -33 -47 -40 -76 -18 -16
11 -16 15 -1 60 12 35 20 47 31 43 8 -3 26 -6 39 -6z m2362 -72 c7 -7 39 -15
70 -18 l57 -5 3 -47 c3 -44 1 -48 -23 -54 -62 -15 -165 19 -173 57 -3 16 34
79 46 79 4 0 14 -6 20 -12z m360 -175 l92 -54 0 -75 c0 -74 0 -75 -22 -63 -13
7 -85 48 -161 92 -121 70 -138 83 -133 101 4 12 9 42 13 69 l6 47 56 -31 c31
-17 98 -56 149 -86z m-301 22 c35 0 63 -2 63 -5 0 -3 -5 -22 -11 -42 -12 -46
-40 -56 -113 -39 -77 18 -90 31 -82 85 l7 45 36 -22 c27 -15 54 -21 100 -22z
m2477 -232 c-4 -82 -10 -152 -15 -157 -5 -5 -25 -15 -45 -22 l-37 -13 7 46 c3
25 6 91 6 147 l0 101 38 21 c20 12 40 22 45 23 4 1 4 -65 1 -146z m-104 -41
l0 -129 -326 -189 c-179 -104 -376 -218 -437 -253 -62 -35 -256 -147 -432
-249 -176 -102 -404 -234 -507 -294 -102 -59 -189 -108 -192 -108 -3 0 -6 61
-6 135 0 94 3 135 11 135 7 0 83 42 170 93 88 50 178 103 201 116 35 20 260
150 668 386 30 17 179 103 330 190 151 87 327 189 390 226 63 37 118 68 123
68 4 1 7 -57 7 -127z m-4750 -179 c760 -439 1202 -694 1535 -886 383 -221 338
-193 334 -206 -2 -6 -155 76 -339 183 -401 231 -1143 661 -1400 810 -102 60
-283 164 -403 233 -119 68 -215 129 -211 134 3 6 19 2 37 -9 18 -11 219 -127
447 -259z m214 -65 c325 -187 695 -402 821 -475 127 -74 364 -212 527 -306
211 -122 298 -177 298 -189 0 -10 -2 -18 -4 -18 -2 0 -151 86 -330 190 -180
105 -329 190 -331 190 -2 0 -68 38 -147 83 -139 82 -1220 706 -1385 801 -93
54 -106 66 -67 66 17 0 242 -124 618 -342z m-230 35 c472 -273 1073 -622 1296
-753 269 -158 572 -330 581 -330 5 0 9 -7 9 -16 0 -22 -4 -20 -198 92 -351
204 -501 290 -607 349 -60 34 -393 226 -740 427 -346 200 -672 388 -722 417
-51 30 -93 60 -93 67 0 8 3 14 6 14 3 0 214 -120 468 -267z m-416 188 c24 -17
324 -192 532 -311 41 -23 91 -51 110 -62 28 -16 688 -398 830 -480 19 -12 55
-32 80 -46 52 -29 370 -212 575 -331 77 -44 146 -81 153 -81 16 0 18 -485 2
-495 -6 -4 -25 2 -43 13 -17 11 -115 68 -217 128 -102 59 -201 117 -220 129
-38 25 -172 103 -690 400 -190 110 -464 268 -610 352 -146 84 -327 188 -402
231 l-137 77 -1 248 c0 136 2 247 5 247 3 0 18 -9 33 -19z m5036 -258 c-10 -7
-29 -13 -43 -13 -24 1 -23 2 14 25 26 16 41 21 44 13 2 -6 -4 -17 -15 -25z
m55 -37 c42 -67 18 -100 -79 -112 -91 -10 -175 40 -134 80 28 29 58 39 104 37
28 -1 53 4 65 13 11 9 21 16 22 16 1 0 11 -15 22 -34z m-1905 -404 c5 -8 -851
-512 -868 -512 -4 0 -6 7 -4 15 3 16 831 504 855 505 6 0 14 -4 17 -8z m6 -46
c-18 -17 -860 -506 -872 -506 -4 0 -8 3 -8 8 1 8 870 512 885 512 5 0 3 -6 -5
-14z m8 -38 c-3 -7 -78 -56 -169 -109 -326 -190 -691 -400 -705 -406 -30 -11
-13 27 19 41 17 8 214 120 437 250 223 129 409 236 413 236 5 0 7 -6 5 -12z
m2 -73 c0 -29 5 -39 30 -53 l30 -17 -2 -178 -3 -179 -200 -115 c-110 -64 -279
-161 -375 -216 -96 -55 -212 -122 -257 -149 -45 -26 -84 -48 -88 -48 -3 0 -5
111 -5 248 l0 247 287 165 c158 91 350 202 427 247 78 46 144 83 149 83 4 0 7
-16 7 -35z m-880 -704 c0 -156 -4 -252 -10 -256 -7 -4 -10 82 -10 249 0 164 4
256 10 256 6 0 10 -90 10 -249z m306 -186 l19 -35 -26 -26 c-34 -34 -125 -44
-182 -21 -43 18 -46 29 -14 45 12 7 54 29 92 50 41 23 74 35 81 31 6 -5 19
-25 30 -44z"/>
<path d="M3198 5219 c-45 -26 1 -79 57 -65 36 9 43 35 16 58 -26 20 -47 22
-73 7z m62 -28 c0 -12 -37 -24 -50 -16 -20 12 -10 25 20 25 17 0 30 -4 30 -9z"/>
<path d="M3413 5218 c-53 -25 -2 -82 55 -62 38 13 42 51 7 64 -31 12 -33 12
-62 -2z m49 -40 c-17 -8 -26 -8 -34 0 -9 9 -4 12 23 11 32 0 33 -1 11 -11z"/>
<path d="M3619 5212 c-27 -23 -20 -49 16 -58 61 -15 105 45 49 66 -34 13 -38
13 -65 -8z m55 -8 c22 -8 20 -21 -4 -29 -28 -9 -44 3 -29 21 13 16 12 16 33 8z"/>
<path d="M3838 5219 c-45 -26 1 -79 57 -65 36 9 43 35 16 58 -26 20 -47 22
-73 7z m47 -23 c12 -12 12 -15 -3 -18 -29 -8 -43 1 -29 17 15 18 16 18 32 1z"/>
<path d="M3082 5148 c-18 -18 -15 -36 7 -48 43 -22 91 -6 91 31 0 29 -74 41
-98 17z m68 -18 c12 -8 12 -10 -3 -16 -22 -8 -50 3 -42 16 8 12 25 13 45 0z"/>
<path d="M3292 5148 c-18 -18 -15 -36 7 -48 49 -26 111 2 91 41 -12 22 -78 27
-98 7z m72 -28 c-7 -7 -19 -7 -35 -1 -23 9 -22 10 11 10 23 1 31 -2 24 -9z"/>
<path d="M3501 5142 c-22 -40 52 -69 95 -38 30 23 7 50 -44 54 -32 2 -43 -1
-51 -16z m69 -18 c0 -11 -5 -14 -16 -10 -9 3 -21 6 -27 6 -16 0 14 20 31 20 6
0 12 -7 12 -16z"/>
<path d="M3723 5153 c-20 -8 -15 -41 7 -53 45 -24 102 5 87 44 -6 16 -64 22
-94 9z m58 -36 c-5 -5 -17 -7 -26 -3 -13 5 -14 8 -3 20 9 10 17 11 26 3 8 -6
9 -14 3 -20z"/>
<path d="M3932 5148 c-41 -41 46 -81 89 -42 29 26 8 54 -39 54 -21 0 -43 -5
-50 -12z m68 -18 c12 -8 12 -10 -3 -16 -9 -3 -25 -3 -34 0 -15 6 -15 8 -3 16
8 6 17 10 20 10 3 0 12 -4 20 -10z"/>
<path d="M2970 5085 c-17 -20 -6 -43 25 -51 55 -14 100 19 69 51 -20 19 -78
20 -94 0z m64 -11 c26 -10 18 -24 -14 -24 -30 0 -41 14 -17 23 6 3 13 6 14 6
1 1 8 -2 17 -5z"/>
<path d="M3193 5093 c-17 -6 -16 -38 1 -52 20 -17 77 -10 89 11 22 34 -40 62
-90 41z m67 -37 c0 -8 -45 -8 -53 1 -4 3 1 12 10 18 13 10 20 10 30 -1 7 -7
13 -15 13 -18z"/>
<path d="M3399 5084 c-19 -23 1 -48 40 -52 36 -4 61 12 61 38 0 32 -77 43
-101 14z m71 -19 c0 -9 -9 -15 -25 -15 -24 0 -32 10 -18 23 12 13 43 7 43 -8z"/>
<path d="M3609 5084 c-19 -23 1 -48 43 -52 45 -4 73 20 58 49 -14 24 -81 27
-101 3z m67 -8 c21 -21 18 -26 -16 -26 -33 0 -36 4 -17 25 15 18 16 18 33 1z"/>
<path d="M3833 5093 c-7 -2 -13 -15 -13 -29 0 -17 7 -25 24 -30 56 -14 104 17
77 50 -13 15 -61 20 -88 9z m65 -30 c2 -8 -6 -13 -22 -13 -26 0 -40 12 -29 24
11 11 46 2 51 -11z"/>
<path d="M2866 5021 c-16 -17 -16 -20 0 -35 22 -22 83 -18 98 7 24 40 -65 65
-98 28z m74 -21 c0 -5 -11 -10 -25 -10 -14 0 -25 5 -25 10 0 6 11 10 25 10 14
0 25 -4 25 -10z"/>
<path d="M3084 5026 c-15 -12 -17 -18 -8 -33 20 -33 104 -29 104 5 0 40 -57
57 -96 28z m66 -26 c0 -5 -11 -10 -25 -10 -14 0 -25 5 -25 10 0 6 11 10 25 10
14 0 25 -4 25 -10z"/>
<path d="M3294 5026 c-30 -23 -7 -50 44 -54 32 -2 43 1 51 17 23 41 -50 69
-95 37z m66 -21 c11 -13 8 -15 -20 -15 -28 0 -31 2 -20 15 7 8 16 15 20 15 4
0 13 -7 20 -15z"/>
<path d="M3513 5033 c-7 -2 -13 -15 -13 -29 0 -17 7 -25 24 -30 36 -9 68 -1
80 19 9 15 7 21 -8 33 -19 14 -59 17 -83 7z m67 -34 c0 -5 -11 -9 -25 -9 -26
0 -34 15 -12 23 16 5 37 -3 37 -14z"/>
<path d="M3719 5024 c-21 -25 1 -49 46 -49 24 0 42 6 48 17 16 24 -8 48 -48
48 -18 0 -38 -7 -46 -16z m69 -22 c2 -7 -7 -12 -22 -12 -27 0 -35 15 -13 23
17 7 30 3 35 -11z"/>
<path d="M3934 5026 c-15 -12 -17 -18 -8 -33 19 -31 95 -30 107 2 15 37 -59
60 -99 31z m64 -24 c2 -7 -7 -12 -22 -12 -27 0 -35 15 -13 23 17 7 30 3 35
-11z"/>
<path d="M2976 4964 c-20 -19 -20 -28 0 -44 23 -20 75 -16 90 5 30 41 -53 76
-90 39z m64 -24 c11 -7 7 -10 -18 -10 -20 0 -31 4 -27 10 8 13 26 13 45 0z"/>
<path d="M3192 4968 c-20 -20 -14 -48 13 -58 30 -11 73 2 82 26 13 34 -66 61
-95 32z m63 -28 c4 -6 -7 -10 -25 -10 -18 0 -29 4 -25 10 3 6 15 10 25 10 10
0 22 -4 25 -10z"/>
<path d="M3402 4968 c-20 -20 -13 -46 16 -55 55 -19 102 15 72 52 -15 18 -71
20 -88 3z m68 -28 c11 -7 7 -10 -18 -10 -20 0 -31 4 -27 10 8 13 26 13 45 0z"/>
<path d="M3615 4966 c-23 -17 -14 -43 20 -56 29 -11 69 1 78 24 15 37 -58 61
-98 32z m65 -26 c11 -7 7 -10 -18 -10 -20 0 -31 4 -27 10 8 13 26 13 45 0z"/>
<path d="M3830 4965 c-18 -21 -8 -48 20 -55 53 -14 102 29 65 56 -25 18 -69
18 -85 -1z m60 -20 c11 -13 8 -15 -20 -15 -28 0 -31 2 -20 15 7 8 16 15 20 15
4 0 13 -7 20 -15z"/>
<path d="M2878 4909 c-27 -15 -22 -48 8 -59 34 -13 72 -3 80 23 12 37 -46 61
-88 36z m51 -23 c9 -11 6 -15 -14 -18 -24 -5 -34 9 -18 25 10 10 19 8 32 -7z"/>
<path d="M3086 4907 c-24 -18 -13 -53 19 -61 34 -9 75 9 75 33 0 36 -59 53
-94 28z m64 -27 c11 -7 7 -10 -18 -10 -20 0 -31 4 -27 10 8 13 26 13 45 0z"/>
<path d="M3294 4899 c-19 -21 -18 -21 5 -41 27 -21 65 -18 91 8 13 14 12 17
-9 35 -30 25 -63 24 -87 -2z m71 -19 c4 -6 -7 -10 -25 -10 -18 0 -29 4 -25 10
3 6 15 10 25 10 10 0 22 -4 25 -10z"/>
<path d="M3518 4910 c-47 -29 8 -84 59 -61 27 12 40 38 27 51 -15 15 -68 21
-86 10z m52 -25 c11 -13 8 -15 -19 -15 -27 0 -30 2 -19 15 17 18 23 18 38 0z"/>
<path d="M3726 4907 c-43 -31 13 -78 67 -58 48 19 25 71 -30 71 -11 0 -27 -6
-37 -13z m58 -22 c19 -14 17 -15 -17 -15 -32 0 -36 2 -25 15 16 18 18 18 42 0z"/>
<path d="M3948 4913 c-22 -6 -32 -34 -16 -49 25 -25 63 -26 89 -5 l24 21 -24
20 c-23 19 -38 22 -73 13z m52 -28 c11 -13 8 -15 -20 -15 -28 0 -31 2 -20 15
7 8 16 15 20 15 4 0 13 -7 20 -15z"/>
<path d="M2979 4840 l-24 -20 24 -20 c30 -26 63 -25 87 1 19 21 18 21 -5 40
-30 24 -53 24 -82 -1z m61 -20 c12 -8 12 -10 -3 -16 -9 -3 -25 -3 -34 0 -15 6
-15 8 -3 16 8 6 17 10 20 10 3 0 12 -4 20 -10z"/>
<path d="M3203 4850 c-31 -13 -30 -47 2 -62 46 -21 100 13 77 49 -11 17 -53
24 -79 13z m46 -29 c19 -12 -4 -24 -30 -16 -17 6 -19 9 -8 16 17 11 21 11 38
0z"/>
<path d="M3413 4850 c-56 -23 -2 -84 55 -64 38 13 42 51 7 64 -31 12 -33 12
-62 0z m51 -43 c-10 -6 -25 -5 -38 1 -17 9 -18 11 -3 11 9 1 17 6 17 11 0 6 8
5 20 -2 17 -11 18 -14 4 -21z"/>
<path d="M3619 4840 l-24 -20 24 -20 c29 -25 52 -25 81 -2 l23 19 -21 21 c-27
27 -53 28 -83 2z m61 -20 c12 -8 12 -10 -3 -16 -9 -3 -25 -3 -34 0 -15 6 -15
8 -3 16 8 6 17 10 20 10 3 0 12 -4 20 -10z"/>
<path d="M3838 4849 c-26 -15 -22 -48 6 -60 55 -25 108 19 66 53 -25 20 -47
22 -72 7z m52 -42 c-4 -5 -18 -6 -30 -2 -20 6 -20 8 -4 20 13 9 21 9 30 1 7
-6 9 -15 4 -19z"/>
<path d="M2883 4790 c-31 -12 -30 -47 1 -61 48 -22 108 14 75 46 -20 19 -51
25 -76 15z m57 -29 c0 -16 -19 -23 -41 -16 -17 6 -19 9 -8 16 19 12 49 11 49
0z"/>
<path d="M3089 4782 c-27 -23 -20 -49 16 -58 60 -15 102 40 50 64 -34 16 -39
15 -66 -6z m53 -34 c-17 -8 -26 -8 -34 0 -9 9 -4 12 23 11 32 0 33 -1 11 -11z"/>
<path d="M3300 4782 c-28 -23 -22 -49 15 -58 54 -13 97 16 72 49 -20 26 -60
30 -87 9z m60 -22 c12 -8 12 -10 -3 -16 -9 -3 -25 -3 -34 0 -15 6 -15 8 -3 16
8 6 17 10 20 10 3 0 12 -4 20 -10z"/>
<path d="M3523 4790 c-25 -10 -30 -39 -11 -58 24 -24 98 -7 98 22 0 29 -52 50
-87 36z m50 -42 c-5 -10 -37 -10 -46 -1 -4 3 1 12 10 18 12 9 20 9 29 1 6 -6
10 -14 7 -18z"/>
<path d="M3733 4788 c-53 -25 -2 -82 55 -62 37 13 41 47 7 62 -30 14 -33 14
-62 0z m51 -40 c-15 -7 -28 -7 -40 1 -16 9 -12 10 21 10 35 0 37 -2 19 -11z"/>
<path d="M3943 4785 c-28 -20 -29 -41 -4 -55 48 -25 116 7 88 43 -18 24 -59
30 -84 12z m57 -25 c12 -8 12 -10 -3 -16 -9 -3 -25 -3 -34 0 -15 6 -15 8 -3
16 8 6 17 10 20 10 3 0 12 -4 20 -10z"/>
<path d="M2972 4718 c-18 -18 -15 -36 7 -48 49 -26 111 2 91 41 -12 22 -78 27
-98 7z m73 -28 c-3 -5 -15 -10 -25 -10 -10 0 -22 5 -25 10 -4 6 7 10 25 10 18
0 29 -4 25 -10z"/>
<path d="M3189 4714 c-21 -25 1 -49 46 -49 24 0 42 6 48 17 16 24 -8 48 -48
48 -18 0 -38 -7 -46 -16z m71 -24 c0 -5 -11 -10 -25 -10 -14 0 -25 5 -25 10 0
6 11 10 25 10 14 0 25 -4 25 -10z"/>
<path d="M3399 4714 c-19 -23 1 -48 40 -52 36 -4 61 12 61 38 0 32 -77 43
-101 14z m69 -22 c4 -14 -34 -16 -42 -3 -6 10 13 21 28 17 6 -1 12 -8 14 -14z"/>
<path d="M3612 4718 c-18 -18 -15 -36 7 -48 49 -26 111 2 91 41 -12 22 -78 27
-98 7z m73 -28 c-3 -5 -15 -10 -25 -10 -10 0 -22 5 -25 10 -4 6 7 10 25 10 18
0 29 -4 25 -10z"/>
<path d="M3820 4711 c-15 -29 13 -53 58 -49 73 6 65 68 -9 68 -28 0 -41 -5
-49 -19z m75 -21 c-3 -5 -15 -10 -25 -10 -10 0 -22 5 -25 10 -4 6 7 10 25 10
18 0 29 -4 25 -10z"/>
<path d="M2873 4663 c-7 -2 -13 -15 -13 -29 0 -17 7 -25 24 -30 56 -14 104 17
77 50 -13 15 -61 20 -88 9z m67 -33 c0 -5 -14 -10 -31 -10 -17 0 -28 4 -24 10
3 6 17 10 31 10 13 0 24 -4 24 -10z"/>
<path d="M3079 4654 c-21 -25 1 -49 46 -49 24 0 42 6 48 17 16 24 -8 48 -48
48 -18 0 -38 -7 -46 -16z m76 -24 c4 -6 -7 -10 -24 -10 -17 0 -31 5 -31 10 0
6 11 10 24 10 14 0 28 -4 31 -10z"/>
<path d="M3289 4654 c-21 -25 1 -48 49 -52 32 -2 43 1 51 17 8 15 7 23 -5 35
-20 21 -78 21 -95 0z m81 -24 c0 -5 -13 -10 -30 -10 -16 0 -30 5 -30 10 0 6
14 10 30 10 17 0 30 -4 30 -10z"/>
<path d="M3513 4663 c-7 -2 -13 -15 -13 -29 0 -17 7 -25 24 -30 56 -14 104 17
77 50 -13 15 -61 20 -88 9z m65 -30 c2 -9 -7 -13 -28 -13 -28 0 -31 2 -20 15
15 18 41 16 48 -2z"/>
<path d="M3719 4654 c-21 -25 1 -49 46 -49 24 0 42 6 48 17 16 24 -8 48 -48
48 -18 0 -38 -7 -46 -16z m71 -24 c0 -5 -11 -10 -25 -10 -14 0 -25 5 -25 10 0
6 11 10 25 10 14 0 25 -4 25 -10z"/>
<path d="M2975 4596 c-23 -17 -14 -43 20 -56 29 -11 69 1 78 24 15 37 -58 61
-98 32z m70 -26 c4 -6 -7 -10 -25 -10 -18 0 -29 4 -25 10 3 6 15 10 25 10 10
0 22 -4 25 -10z"/>
<path d="M3190 4595 c-6 -8 -10 -22 -8 -32 5 -26 86 -26 102 0 9 15 7 21 -8
33 -25 18 -70 18 -86 -1z m70 -26 c0 -5 -15 -9 -32 -9 -31 1 -32 2 -15 15 19
14 47 10 47 -6z"/>
<path d="M3399 4594 c-9 -11 -10 -20 -2 -32 20 -33 103 -27 103 8 0 37 -75 55
-101 24z m76 -24 c4 -6 -7 -10 -24 -10 -17 0 -31 5 -31 10 0 6 11 10 24 10 14
0 28 -4 31 -10z"/>
<path d="M3614 4596 c-30 -23 -7 -50 44 -54 32 -2 43 1 51 17 23 41 -50 69
-95 37z m71 -26 c4 -6 -7 -10 -25 -10 -18 0 -29 4 -25 10 3 6 15 10 25 10 10
0 22 -4 25 -10z"/>
<path d="M4462 4478 c-20 -20 -14 -47 12 -54 36 -9 68 -1 80 19 9 15 7 21 -8
33 -24 17 -68 18 -84 2z m59 -23 c0 -13 -41 -19 -41 -7 0 11 20 22 33 18 5 -1
8 -6 8 -11z"/>
<path d="M4669 4474 c-27 -33 21 -64 77 -50 26 7 32 34 12 54 -17 17 -73 15
-89 -4z m71 -20 c0 -10 -7 -14 -22 -12 -32 5 -35 28 -4 28 17 0 26 -5 26 -16z"/>
<path d="M4886 4474 c-19 -19 -20 -26 -4 -42 25 -25 108 -10 108 19 0 17 -34
39 -60 39 -16 0 -36 -7 -44 -16z m64 -19 c11 -13 8 -15 -20 -15 -28 0 -31 2
-20 15 7 8 16 15 20 15 4 0 13 -7 20 -15z"/>
<path d="M5102 4478 c-20 -20 -14 -47 12 -54 36 -9 68 -1 80 19 9 15 7 21 -8
33 -24 17 -68 18 -84 2z m52 -14 c27 -10 18 -24 -15 -24 -27 0 -30 2 -19 15
14 17 13 17 34 9z"/>
<path d="M4355 4416 c-39 -28 19 -75 70 -56 27 10 33 38 13 58 -16 16 -60 15
-83 -2z m65 -26 c11 -7 7 -10 -18 -10 -20 0 -31 4 -27 10 8 13 26 13 45 0z"/>
<path d="M4565 4410 c-14 -15 -15 -23 -6 -34 19 -23 61 -29 87 -11 28 18 30
28 8 49 -21 22 -67 20 -89 -4z m70 -20 c4 -6 -7 -10 -25 -10 -18 0 -29 4 -25
10 3 6 15 10 25 10 10 0 22 -4 25 -10z"/>
<path d="M4788 4419 c-26 -15 -22 -44 9 -58 54 -25 115 31 64 59 -25 13 -51
12 -73 -1z m57 -29 c4 -6 -7 -10 -27 -10 -25 0 -29 3 -18 10 19 13 37 13 45 0z"/>
<path d="M4995 4416 c-39 -29 17 -76 68 -57 32 12 36 45 8 61 -27 14 -54 13
-76 -4z m70 -26 c4 -6 -7 -10 -25 -10 -18 0 -29 4 -25 10 3 6 15 10 25 10 10
0 22 -4 25 -10z"/>
<path d="M5206 4414 c-22 -21 -20 -31 8 -49 26 -18 68 -12 87 11 9 11 8 19 -6
34 -22 24 -68 26 -89 4z m74 -23 c0 -5 -6 -11 -12 -14 -19 -6 -49 4 -42 14 7
12 54 12 54 0z"/>
<path d="M4249 4350 l-24 -20 24 -20 c28 -24 49 -25 79 -4 26 18 27 27 6 48
-21 22 -57 20 -85 -4z m66 -22 c6 -4 -5 -8 -24 -8 -33 0 -34 1 -15 14 10 8 21
11 24 8 3 -4 10 -10 15 -14z"/>
<path d="M4466 4357 c-43 -31 13 -78 67 -58 48 19 25 71 -30 71 -11 0 -27 -6
-37 -13z m54 -22 c11 -13 8 -15 -15 -15 -23 0 -26 2 -15 15 7 8 14 15 15 15 1
0 8 -7 15 -15z"/>
<path d="M4678 4359 c-48 -27 10 -81 65 -60 32 12 36 45 8 61 -25 13 -51 12
-73 -1z m62 -29 c11 -7 7 -10 -18 -10 -20 0 -31 4 -27 10 8 13 26 13 45 0z"/>
<path d="M4889 4350 l-24 -20 24 -20 c13 -11 31 -20 41 -20 10 0 28 9 41 20
l24 20 -24 20 c-13 11 -31 20 -41 20 -10 0 -28 -9 -41 -20z m61 -20 c11 -7 6
-10 -20 -10 -26 0 -31 3 -20 10 8 5 17 10 20 10 3 0 12 -5 20 -10z"/>
<path d="M5108 4359 c-26 -14 -22 -48 6 -60 31 -14 80 1 85 26 6 36 -52 57
-91 34z m57 -29 c4 -6 -7 -10 -27 -10 -25 0 -29 3 -18 10 19 13 37 13 45 0z"/>
<path d="M4153 4299 c-56 -21 -2 -83 55 -63 27 9 41 39 25 54 -15 13 -57 18
-80 9z m46 -23 c15 -18 -1 -30 -29 -21 -16 5 -17 9 -7 20 15 18 22 18 36 1z"/>
<path d="M4359 4292 c-27 -23 -20 -49 16 -58 61 -15 105 45 49 66 -34 13 -38
13 -65 -8z m59 -21 c11 -7 11 -9 -2 -14 -9 -4 -23 -4 -32 0 -13 5 -13 7 -2 14
7 5 15 9 18 9 3 0 11 -4 18 -9z"/>
<path d="M4580 4297 c-32 -16 -32 -37 1 -56 30 -17 74 -9 83 16 13 33 -43 60
-84 40z m49 -26 c11 -7 9 -10 -8 -16 -26 -8 -49 4 -30 16 17 11 21 11 38 0z"/>
<path d="M4793 4300 c-56 -23 -2 -84 55 -64 41 14 41 49 1 63 -18 6 -32 11
-33 10 -1 0 -11 -4 -23 -9z m56 -29 c11 -7 10 -10 -6 -15 -27 -9 -60 3 -41 15
17 11 29 11 47 0z"/>
<path d="M5010 4301 c-36 -10 -35 -52 2 -65 60 -21 111 42 52 64 -14 6 -26 10
-27 9 -1 -1 -13 -4 -27 -8z m48 -30 c11 -7 11 -9 -2 -14 -20 -8 -48 2 -40 14
7 11 25 11 42 0z"/>
<path d="M5224 4300 c-35 -14 -40 -31 -14 -52 29 -23 52 -23 81 1 21 18 22 21
9 34 -21 21 -51 27 -76 17z m44 -29 c11 -7 11 -9 -2 -14 -9 -4 -23 -4 -32 0
-13 5 -13 7 -2 14 7 5 15 9 18 9 3 0 11 -4 18 -9z"/>
<path d="M4275 4242 c-11 -2 -26 -11 -32 -20 -30 -38 56 -72 91 -36 19 19 20
28 4 41 -19 15 -41 20 -63 15z m35 -32 c12 -8 12 -10 -3 -16 -9 -3 -25 -3 -34
0 -15 6 -15 8 -3 16 8 6 17 10 20 10 3 0 12 -4 20 -10z"/>
<path d="M4478 4238 c-50 -17 -30 -68 27 -68 34 0 55 15 55 41 0 23 -47 38
-82 27z m52 -38 c0 -5 -11 -10 -24 -10 -14 0 -28 5 -31 10 -4 6 7 10 24 10 17
0 31 -4 31 -10z"/>
<path d="M4692 4239 c-51 -19 -31 -69 28 -69 52 0 69 51 22 68 -15 5 -37 6
-50 1z m53 -39 c-3 -5 -15 -10 -25 -10 -10 0 -22 5 -25 10 -4 6 7 10 25 10 18
0 29 -4 25 -10z"/>
<path d="M5118 4238 c-50 -17 -30 -68 27 -68 34 0 55 15 55 41 0 23 -47 38
-82 27z m52 -38 c0 -5 -11 -10 -24 -10 -14 0 -28 5 -31 10 -4 6 7 10 24 10 17
0 31 -4 31 -10z"/>
<path d="M4881 4226 c-16 -19 -3 -45 25 -52 52 -13 99 20 73 52 -6 8 -28 14
-49 14 -21 0 -43 -6 -49 -14z m74 -26 c-3 -5 -15 -10 -25 -10 -10 0 -22 5 -25
10 -4 6 7 10 25 10 18 0 29 -4 25 -10z"/>
<path d="M4139 4164 c-19 -23 1 -48 40 -52 36 -4 61 12 61 38 0 32 -77 43
-101 14z m55 -10 c25 -9 19 -24 -9 -24 -24 0 -32 10 -18 23 8 8 8 8 27 1z"/>
<path d="M4350 4165 c-27 -32 20 -65 75 -51 29 7 35 50 9 60 -28 11 -71 6 -84
-9z m75 -25 c-3 -5 -15 -10 -25 -10 -10 0 -22 5 -25 10 -4 6 7 10 25 10 18 0
29 -4 25 -10z"/>
<path d="M4561 4161 c-23 -41 50 -69 95 -37 30 23 7 50 -44 54 -32 2 -43 -1
-51 -17z m74 -21 c-3 -5 -15 -10 -25 -10 -10 0 -22 5 -25 10 -4 6 7 10 25 10
18 0 29 -4 25 -10z"/>
<path d="M4783 4173 c-7 -2 -13 -15 -13 -29 0 -17 7 -25 25 -30 55 -14 102 19
75 51 -12 14 -61 19 -87 8z m67 -33 c0 -5 -11 -10 -25 -10 -14 0 -25 5 -25 10
0 6 11 10 25 10 14 0 25 -4 25 -10z"/>
<path d="M4992 4168 c-18 -18 -15 -36 7 -48 43 -22 91 -6 91 31 0 29 -74 41
-98 17z m68 -28 c0 -5 -11 -10 -25 -10 -14 0 -25 5 -25 10 0 6 11 10 25 10 14
0 25 -4 25 -10z"/>
<path d="M5200 4161 c-13 -26 11 -51 50 -51 26 0 60 22 60 39 0 34 -92 44
-110 12z m64 -7 c20 -8 11 -24 -15 -24 -19 0 -25 11 -12 23 8 8 8 8 27 1z"/>
<path d="M4246 4104 c-19 -19 -20 -26 -4 -42 25 -25 108 -10 108 19 0 17 -34
39 -60 39 -16 0 -36 -7 -44 -16z m58 -10 c27 -10 18 -24 -15 -24 -27 0 -30 2
-19 15 14 17 13 17 34 9z"/>
<path d="M4462 4108 c-20 -20 -14 -47 12 -54 56 -14 104 17 77 50 -16 19 -72
21 -89 4z m68 -29 c0 -5 -11 -9 -25 -9 -26 0 -34 15 -12 23 16 5 37 -3 37 -14z"/>
<path d="M4669 4104 c-27 -33 21 -64 77 -50 28 7 34 50 8 60 -29 11 -71 6 -85
-10z m76 -24 c4 -6 -7 -10 -24 -10 -17 0 -31 5 -31 10 0 6 11 10 24 10 14 0
28 -4 31 -10z"/>
<path d="M4884 4106 c-31 -24 -7 -51 46 -51 53 0 77 27 46 51 -11 8 -32 14
-46 14 -14 0 -35 -6 -46 -14z m71 -26 c4 -6 -7 -10 -25 -10 -18 0 -29 4 -25
10 3 6 15 10 25 10 10 0 22 -4 25 -10z"/>
<path d="M4146 4047 c-10 -7 -16 -22 -14 -33 5 -27 86 -28 102 -1 22 36 -49
63 -88 34z m64 -28 c0 -5 -15 -9 -32 -9 -31 1 -32 2 -15 15 19 14 47 10 47 -6z"/>
<path d="M4354 4046 c-32 -24 -7 -51 47 -51 35 0 44 4 47 19 8 39 -55 60 -94
32z m71 -26 c4 -6 -7 -10 -25 -10 -18 0 -29 4 -25 10 3 6 15 10 25 10 10 0 22
-4 25 -10z"/>
<path d="M4566 4044 c-19 -19 -20 -26 -4 -42 25 -25 108 -10 108 19 0 17 -34
39 -60 39 -16 0 -36 -7 -44 -16z m69 -24 c4 -6 -7 -10 -25 -10 -18 0 -29 4
-25 10 3 6 15 10 25 10 10 0 22 -4 25 -10z"/>
<path d="M4786 4047 c-10 -7 -16 -22 -14 -33 5 -27 86 -28 102 -1 22 36 -49
63 -88 34z m64 -27 c0 -5 -14 -10 -31 -10 -17 0 -28 4 -24 10 3 6 17 10 31 10
13 0 24 -4 24 -10z"/>
<path d="M4994 4046 c-32 -24 -7 -51 47 -51 35 0 44 4 47 19 8 39 -55 60 -94
32z m66 -27 c0 -5 -11 -9 -25 -9 -26 0 -34 15 -12 23 16 5 37 -3 37 -14z"/>
<path d="M4249 3980 l-24 -20 24 -20 c28 -24 49 -25 79 -4 26 18 27 27 6 48
-21 22 -57 20 -85 -4z m59 -31 c-6 -4 -19 -4 -29 -2 -18 5 -18 6 -2 18 12 9
20 9 29 1 7 -7 8 -13 2 -17z"/>
<path d="M4466 3987 c-43 -31 13 -78 67 -58 48 19 25 71 -30 71 -11 0 -27 -6
-37 -13z m56 -38 c-26 -10 -45 0 -31 17 8 10 15 11 30 1 18 -11 18 -12 1 -18z"/>
<path d="M4678 3989 c-48 -28 15 -84 67 -61 30 14 33 47 6 62 -25 13 -51 12
-73 -1z m62 -29 c11 -7 6 -10 -20 -10 -26 0 -31 3 -20 10 8 5 17 10 20 10 3 0
12 -5 20 -10z"/>
<path d="M4889 3980 l-24 -20 24 -20 c29 -25 52 -25 82 -1 23 19 24 19 5 40
-24 26 -57 27 -87 1z m56 -16 c23 -9 -1 -23 -27 -16 -15 4 -17 7 -6 13 16 11
13 10 33 3z"/>
<path d="M4146 3927 c-44 -32 16 -83 69 -59 33 15 33 49 -1 62 -34 13 -47 13
-68 -3z m55 -36 c-12 -8 -51 -4 -51 5 0 2 15 4 33 4 22 0 28 -3 18 -9z"/>
<path d="M4359 3922 c-28 -24 -20 -48 20 -57 61 -13 101 44 45 65 -34 13 -38
13 -65 -8z m55 -32 c-10 -4 -25 -5 -32 -2 -22 8 6 21 31 14 20 -5 20 -6 1 -12z"/>
<path d="M4572 3924 c-28 -20 -28 -30 3 -50 51 -33 121 11 75 48 -27 22 -49
23 -78 2z m55 -36 c-8 -4 -23 -5 -33 -1 -16 6 -16 7 2 13 26 10 52 0 31 -12z"/>
<path d="M4786 3927 c-44 -32 16 -83 69 -59 33 15 33 49 -1 62 -34 13 -47 13
-68 -3z m54 -37 c-7 -4 -22 -5 -33 -2 -20 5 -20 6 -1 12 24 9 51 1 34 -10z"/>
<path d="M4240 3855 c-18 -21 14 -55 51 -55 26 0 59 22 59 39 0 31 -87 43
-110 16z m75 -25 c-3 -5 -15 -10 -25 -10 -10 0 -22 5 -25 10 -4 6 7 10 25 10
18 0 29 -4 25 -10z"/>
<path d="M4457 3863 c-15 -14 -6 -44 17 -54 49 -22 104 12 76 46 -12 15 -81
21 -93 8z m62 -22 c9 -6 10 -10 2 -16 -16 -9 -44 2 -36 15 8 12 16 12 34 1z"/>
<path d="M4672 3858 c-18 -18 -15 -36 8 -48 45 -24 102 5 87 44 -8 19 -77 22
-95 4z m73 -28 c-3 -5 -15 -10 -25 -10 -10 0 -22 5 -25 10 -4 6 7 10 25 10 18
0 29 -4 25 -10z"/>
<path d="M3267 3334 c-13 -13 -7 -55 8 -60 21 -9 47 15 43 40 -3 21 -37 34
-51 20z m33 -29 c0 -8 -4 -15 -9 -15 -13 0 -22 16 -14 24 11 11 23 6 23 -9z"/>
<path d="M3334 3300 c-9 -22 -20 -40 -25 -40 -5 0 -9 -11 -9 -24 0 -17 11 -30
36 -45 19 -12 42 -21 49 -21 13 0 75 93 75 112 0 12 -73 58 -92 58 -12 0 -24
-14 -34 -40z m83 -12 c10 -8 8 -19 -7 -49 -23 -43 -34 -47 -68 -21 l-23 18 23
41 c23 43 33 44 75 11z"/>
<path d="M3472 3258 c-14 -19 -52 -96 -52 -107 0 -12 72 -51 94 -51 17 0 66
80 66 107 0 12 -15 28 -39 41 -45 25 -55 27 -69 10z m59 -33 c29 -16 29 -16
13 -48 -28 -55 -33 -58 -65 -41 -34 17 -35 22 -12 69 19 40 23 41 64 20z"/>
<path d="M6363 3558 c-49 -50 -63 -83 -63 -143 0 -52 24 -75 80 -75 107 0 182
149 114 229 -39 46 -78 43 -131 -11z m77 16 c0 -3 -14 -17 -31 -32 -34 -28
-68 -93 -69 -129 0 -26 -15 -31 -23 -9 -13 33 39 146 75 163 25 13 48 16 48 7z
m55 -47 c21 -32 3 -91 -41 -135 -48 -48 -78 -42 -82 16 -4 50 25 104 66 127
36 19 39 19 57 -8z"/>
<path d="M5534 3381 c-149 -51 -302 -151 -438 -284 -137 -135 -207 -262 -203
-372 2 -51 6 -60 36 -87 34 -30 35 -31 125 -25 102 5 179 32 312 108 94 54
263 188 328 260 92 102 156 225 156 299 0 39 -22 82 -56 109 -41 32 -155 29
-260 -8z m267 -19 c78 -87 -5 -277 -193 -444 -234 -209 -517 -336 -642 -288
-28 10 -50 41 -60 83 -8 33 8 36 41 5 19 -18 34 -21 85 -20 83 2 154 24 262
80 209 107 409 297 454 431 66 192 -175 196 -462 7 -53 -35 -96 -60 -96 -56 0
15 161 121 250 164 121 58 189 76 269 73 57 -3 66 -6 92 -35z m-81 -40 c17
-14 22 -28 22 -61 -1 -24 -3 -46 -6 -49 -3 -3 -6 5 -6 17 0 60 -38 91 -130
105 -14 2 3 4 36 5 46 1 67 -4 84 -17z m-55 -16 c19 -8 35 -19 35 -25 0 -10
-38 -3 -55 9 -18 13 -93 9 -105 -5 -7 -9 -22 -12 -39 -9 -21 4 -30 1 -34 -11
-4 -9 -11 -14 -16 -11 -5 4 -21 1 -36 -6 -21 -10 -25 -16 -20 -39 3 -15 1 -30
-4 -34 -7 -3 -11 2 -11 14 0 27 -15 34 -40 21 -15 -8 -21 -20 -20 -38 3 -44 1
-46 -24 -23 -27 25 -31 22 -41 -32 -8 -41 -25 -50 -25 -13 0 13 -5 26 -11 28
-17 6 100 84 183 123 74 35 164 63 206 64 12 1 38 -6 57 -13z m15 -153 c-117
-237 -567 -500 -681 -397 -40 36 -14 118 26 84 18 -15 17 -16 40 30 10 19 31
50 46 68 37 41 36 48 -3 56 l-32 6 29 30 c22 23 32 27 42 19 7 -6 13 -20 13
-30 0 -24 15 -24 32 -1 15 21 166 122 221 148 20 10 37 21 37 26 0 4 10 8 23
8 13 0 28 5 35 12 15 15 125 13 130 -2 5 -14 35 -13 50 2 7 7 13 21 13 33 2
17 2 17 6 -4 3 -14 -8 -49 -27 -88z m-520 -34 c-36 -28 -40 -31 -92 -89 -27
-28 -48 -47 -48 -41 0 17 149 165 157 157 5 -4 -3 -16 -17 -27z m-140 -153 c0
-3 -4 -8 -10 -11 -5 -3 -10 -1 -10 4 0 6 5 11 10 11 6 0 10 -2 10 -4z m50 -34
c0 -7 -9 -22 -19 -33 l-19 -21 -7 21 c-8 26 24 79 36 59 5 -7 9 -19 9 -26z
m-90 -56 c-5 -15 -10 -46 -10 -70 0 -45 24 -78 65 -90 11 -3 3 -3 -19 -1 -21
2 -49 11 -63 21 -22 14 -24 21 -19 56 7 41 44 124 52 115 2 -2 0 -16 -6 -31z"/>
<path d="M5453 3143 c-13 -2 -23 -9 -23 -15 0 -5 7 -8 15 -4 8 3 25 2 37 -3
21 -7 20 -9 -11 -13 -20 -3 -38 0 -46 9 -16 15 -35 17 -35 3 0 -5 -7 -10 -16
-10 -16 0 -57 -40 -127 -125 -21 -25 -56 -54 -78 -65 -21 -11 -39 -25 -39 -30
0 -14 5 -13 50 10 43 22 154 28 165 10 4 -7 15 -3 28 9 99 87 127 116 146 155
13 24 32 46 42 49 11 3 19 11 19 17 0 8 -6 9 -17 5 -22 -10 -42 -10 -68 -3
-11 3 -30 3 -42 1z"/>
<path d="M5126 3023 c-11 -11 -6 -23 9 -23 8 0 15 4 15 9 0 13 -16 22 -24 14z"/>
<path d="M4319 2387 c-40 -26 -89 -116 -89 -164 0 -48 29 -73 86 -73 58 0 95
25 123 83 28 57 26 94 -4 140 -31 44 -64 49 -116 14z m56 -3 c14 -6 13 -8 -6
-18 -40 -20 -81 -81 -86 -129 -4 -33 -9 -44 -19 -40 -35 13 1 120 55 166 36
30 34 29 56 21z m60 -55 c12 -36 -5 -87 -40 -124 -57 -61 -107 -36 -86 42 21
78 109 135 126 82z"/>
<path d="M2309 3989 c-128 -13 -225 -78 -236 -156 -16 -118 112 -199 307 -197
130 2 225 43 271 118 81 132 -103 259 -342 235z m162 -23 c161 -37 226 -142
142 -226 -54 -53 -133 -80 -237 -80 -172 0 -286 65 -286 163 0 109 204 185
381 143z"/>
<path d="M3596 3535 c-22 -33 -21 -67 1 -63 18 3 55 67 46 81 -9 15 -31 6 -47
-18z"/>
<path d="M3845 3025 c-8 -14 -22 -36 -30 -50 -24 -39 -18 -53 36 -81 28 -14
52 -24 53 -22 22 31 56 101 56 115 0 12 -15 28 -39 41 -49 28 -57 28 -76 -3z
m81 -63 c-33 -61 -37 -64 -73 -42 l-32 19 25 45 25 45 34 -21 c33 -19 34 -21
21 -46z"/>
<path d="M3967 2943 c-37 -59 -48 -83 -43 -91 9 -15 96 -53 106 -47 6 4 17 21
25 38 8 18 20 39 26 48 18 24 5 46 -40 69 -22 11 -43 20 -45 20 -3 0 -16 -17
-29 -37z m63 -8 c17 -9 30 -18 30 -21 0 -10 -41 -84 -46 -84 -11 0 -64 34 -61
40 1 3 11 22 22 43 10 20 20 37 22 37 2 0 17 -7 33 -15z"/>
<path d="M4106 3231 c-28 -39 -28 -61 -1 -61 20 0 56 51 53 74 -5 33 -24 29
-52 -13z"/>
<path d="M3913 3374 c-9 -23 11 -38 26 -20 13 16 7 36 -10 36 -5 0 -12 -7 -16
-16z"/>
<path d="M1760 2816 c-14 -18 -14 -18 260 -175 107 -61 202 -110 210 -109 8 2
15 11 15 21 0 13 -62 55 -223 148 -123 71 -229 129 -236 129 -8 0 -19 -6 -26
-14z m62 -23 c2 -5 19 -16 38 -27 104 -55 130 -71 130 -78 0 -4 -1 -8 -3 -8
-13 0 -197 108 -197 116 0 7 28 4 32 -3z m218 -139 c0 -2 -9 0 -20 6 -11 6
-20 13 -20 16 0 2 9 0 20 -6 11 -6 20 -13 20 -16z m90 -50 c0 -2 -13 2 -30 11
-16 9 -30 18 -30 21 0 2 14 -2 30 -11 17 -9 30 -18 30 -21z m50 -30 c0 -2 -9
0 -20 6 -11 6 -20 13 -20 16 0 2 9 0 20 -6 11 -6 20 -13 20 -16z m35 -22 c-3
-3 -11 0 -18 7 -9 10 -8 11 6 5 10 -3 15 -9 12 -12z"/>
<path d="M1677 2766 c-7 -17 -18 -10 250 -165 189 -109 243 -130 243 -93 -1
12 -67 55 -218 142 -220 126 -264 145 -275 116z m73 -26 c8 -5 12 -12 9 -15
-8 -8 -39 5 -39 16 0 11 11 11 30 -1z m185 -108 c44 -30 82 -57 85 -60 8 -8
-171 89 -184 99 -6 5 -20 16 -31 24 -18 13 -17 14 15 3 19 -6 70 -36 115 -66z
m155 -98 c0 -2 -13 2 -30 11 -16 9 -30 18 -30 21 0 2 14 -2 30 -11 17 -9 30
-18 30 -21z m35 -22 c-3 -3 -11 0 -18 7 -9 10 -8 11 6 5 10 -3 15 -9 12 -12z"/>
<path d="M1591 2726 c-15 -17 -30 -7 224 -154 250 -144 231 -135 256 -121 21
11 21 11 3 28 -27 25 -440 261 -457 261 -8 0 -20 -6 -26 -14z m54 -26 c3 -6
-1 -7 -9 -4 -18 7 -21 14 -7 14 6 0 13 -4 16 -10z m75 -46 c0 -2 -13 2 -30 11
-16 9 -30 18 -30 21 0 2 14 -2 30 -11 17 -9 30 -18 30 -21z m69 -36 c13 -10
19 -18 14 -18 -6 0 -16 7 -23 15 -7 8 -16 13 -20 10 -4 -3 -13 2 -20 10 -11
13 -10 14 6 9 10 -4 30 -16 43 -26z m69 -35 c10 -10 27 -24 38 -31 10 -7 6 -6
-11 2 -40 19 -73 45 -57 46 6 0 20 -8 30 -17z m102 -69 c0 -2 -9 0 -20 6 -11
6 -20 13 -20 16 0 2 9 0 20 -6 11 -6 20 -13 20 -16z m70 -40 c0 -2 -13 2 -30
11 -16 9 -30 18 -30 21 0 2 14 -2 30 -11 17 -9 30 -18 30 -21z"/>
<path d="M1521 2676 c-15 -17 -30 -7 224 -154 250 -144 231 -135 256 -121 21
11 21 11 3 28 -27 25 -440 261 -457 261 -8 0 -20 -6 -26 -14z m54 -26 c3 -6
-1 -7 -9 -4 -18 7 -21 14 -7 14 6 0 13 -4 16 -10z m75 -46 c0 -2 -13 2 -30 11
-16 9 -30 18 -30 21 0 2 14 -2 30 -11 17 -9 30 -18 30 -21z m60 -29 c8 -7 26
-16 40 -20 14 -4 32 -14 40 -22 8 -8 24 -21 35 -29 11 -8 -8 0 -43 18 -90 47
-102 54 -115 67 -16 16 22 3 43 -14z m180 -111 c0 -2 -9 0 -20 6 -11 6 -20 13
-20 16 0 2 9 0 20 -6 11 -6 20 -13 20 -16z m70 -40 c0 -2 -13 2 -30 11 -16 9
-30 18 -30 21 0 2 14 -2 30 -11 17 -9 30 -18 30 -21z"/>
<path d="M1440 2623 c0 -21 434 -273 469 -273 13 0 21 6 21 18 0 12 -66 55
-221 145 -215 124 -269 146 -269 110z m100 -49 c0 -2 -9 0 -20 6 -11 6 -20 13
-20 16 0 2 9 0 20 -6 11 -6 20 -13 20 -16z m70 -40 c0 -2 -13 2 -30 11 -16 9
-30 18 -30 21 0 2 14 -2 30 -11 17 -9 30 -18 30 -21z m115 -61 l30 -23 -30 13
c-33 14 -105 57 -105 62 0 8 77 -31 105 -52z m72 -50 c-8 -7 -37 9 -31 19 3 5
12 4 20 -3 8 -6 13 -14 11 -16z m73 -39 c0 -2 -9 0 -20 6 -11 6 -20 13 -20 16
0 2 9 0 20 -6 11 -6 20 -13 20 -16z"/>
<path d="M1363 2584 c-3 -8 -2 -19 3 -24 19 -18 445 -260 458 -260 22 0 38 26
24 38 -28 22 -453 262 -466 262 -7 0 -15 -7 -19 -16z m87 -50 c0 -2 -13 2 -30
11 -16 9 -30 18 -30 21 0 2 14 -2 30 -11 17 -9 30 -18 30 -21z m70 -40 c0 -2
-13 2 -30 11 -16 9 -30 18 -30 21 0 2 14 -2 30 -11 17 -9 30 -18 30 -21z m50
-30 c0 -2 -9 0 -20 6 -11 6 -20 13 -20 16 0 2 9 0 20 -6 11 -6 20 -13 20 -16z
m90 -50 c0 -2 -13 2 -30 11 -16 9 -30 18 -30 21 0 2 14 -2 30 -11 17 -9 30
-18 30 -21z m55 -24 c14 -15 15 -20 4 -20 -15 1 -49 23 -49 34 0 13 28 5 45
-14z m70 -37 c29 -14 47 -33 30 -33 -12 0 -75 35 -75 42 0 11 4 10 45 -9z"/>
<path d="M1283 2534 c-7 -19 -26 -6 229 -154 190 -110 248 -135 262 -111 3 4
-2 15 -12 24 -32 28 -437 257 -455 257 -10 0 -20 -7 -24 -16z m63 -30 c18 -14
18 -14 -6 -3 -31 14 -36 19 -24 19 6 0 19 -7 30 -16z m129 -77 c6 -6 -12 2
-40 18 -27 15 -54 32 -60 38 -5 6 13 -2 40 -18 28 -15 55 -32 60 -38z m110
-62 c19 -15 18 -15 -10 -1 -16 8 -39 22 -50 31 -19 15 -18 15 10 1 17 -8 39
-22 50 -31z m56 -32 c13 -15 12 -15 -8 -4 -24 12 -29 21 -14 21 5 0 15 -7 22
-17z m82 -40 c15 -5 25 -23 13 -23 -13 0 -76 43 -76 52 0 6 10 3 23 -6 12 -9
30 -19 40 -23z"/>
<path d="M2304 2499 c-3 -6 0 -17 7 -23 38 -35 869 -506 892 -506 28 0 39 10
29 27 -4 6 -115 72 -247 148 -132 76 -328 189 -436 251 -189 110 -230 127
-245 103z m61 -29 c3 -6 -1 -7 -9 -4 -18 7 -21 14 -7 14 6 0 13 -4 16 -10z
m113 -65 c45 -26 82 -49 82 -51 0 -3 -3 -3 -7 -1 -116 66 -173 100 -173 103 0
3 3 3 8 1 4 -2 44 -26 90 -52z m152 -91 c0 -2 -13 2 -30 11 -16 9 -30 18 -30
21 0 2 14 -2 30 -11 17 -9 30 -18 30 -21z m105 -59 c11 -9 -2 -5 -30 10 -27
15 -54 32 -60 37 -15 16 67 -28 90 -47z m105 -60 c0 -3 -18 4 -40 15 -22 11
-40 23 -40 25 0 3 18 -4 40 -15 22 -11 40 -23 40 -25z m50 -31 c0 -2 -9 0 -20
6 -11 6 -20 13 -20 16 0 2 9 0 20 -6 11 -6 20 -13 20 -16z m70 -40 c0 -2 -13
2 -30 11 -16 9 -30 18 -30 21 0 2 14 -2 30 -11 17 -9 30 -18 30 -21z m105 -58
c19 -15 18 -16 -10 -4 -16 7 -34 16 -40 21 -5 4 -19 14 -30 23 -11 8 -2 6 20
-5 22 -11 49 -27 60 -35z m120 -74 c-4 -4 -95 48 -95 55 0 2 22 -8 49 -24 28
-15 48 -29 46 -31z"/>
<path d="M1202 2483 c4 -21 433 -272 464 -273 12 0 24 7 28 15 5 15 -43 45
-336 214 -108 62 -163 77 -156 44z m118 -59 c0 -2 -13 2 -30 11 -16 9 -30 18
-30 21 0 2 14 -2 30 -11 17 -9 30 -18 30 -21z m70 -40 c0 -2 -9 0 -20 6 -11 6
-20 13 -20 16 0 2 9 0 20 -6 11 -6 20 -13 20 -16z m120 -70 c0 -2 -9 0 -20 6
-11 6 -20 13 -20 16 0 2 9 0 20 -6 11 -6 20 -13 20 -16z m85 -39 c59 -37 70
-50 30 -35 -25 10 -105 60 -105 66 0 11 27 0 75 -31z"/>
<path d="M2238 2463 c-10 -2 -18 -10 -18 -16 0 -13 21 -26 438 -268 500 -291
467 -274 491 -245 14 17 12 19 -119 93 -130 74 -688 396 -732 423 -18 11 -35
19 -38 19 -3 -1 -13 -3 -22 -6z m162 -109 c0 -2 -9 0 -20 6 -11 6 -20 13 -20
16 0 2 9 0 20 -6 11 -6 20 -13 20 -16z m70 -40 c0 -2 -9 0 -20 6 -11 6 -20 13
-20 16 0 2 9 0 20 -6 11 -6 20 -13 20 -16z m120 -70 c0 -2 -9 0 -20 6 -11 6
-20 13 -20 16 0 2 9 0 20 -6 11 -6 20 -13 20 -16z m210 -120 c0 -2 -13 2 -30
11 -16 9 -30 18 -30 21 0 2 14 -2 30 -11 17 -9 30 -18 30 -21z m50 -30 c0 -2
-9 0 -20 6 -11 6 -20 13 -20 16 0 2 9 0 20 -6 11 -6 20 -13 20 -16z m133 -68
c31 -20 61 -36 67 -36 5 0 10 -4 10 -9 0 -5 11 -12 25 -15 14 -4 25 -11 25
-16 0 -15 -12 -12 -45 10 -16 11 -53 32 -81 46 -28 14 -64 36 -80 50 l-29 24
26 -9 c14 -5 51 -26 82 -45z"/>
<path d="M1127 2453 c-19 -19 10 -41 201 -151 268 -155 248 -145 274 -131 l22
12 -22 17 c-35 29 -440 260 -455 260 -7 0 -17 -3 -20 -7z m48 -33 c3 -6 -1 -7
-9 -4 -18 7 -21 14 -7 14 6 0 13 -4 16 -10z m75 -46 c0 -2 -13 2 -30 11 -16 9
-30 18 -30 21 0 2 14 -2 30 -11 17 -9 30 -18 30 -21z m115 -67 c6 -6 -12 2
-40 18 -27 15 -54 32 -60 38 -5 6 13 -2 40 -18 28 -15 55 -32 60 -38z m70 -37
c3 -6 -1 -7 -9 -4 -18 7 -21 14 -7 14 6 0 13 -4 16 -10z m100 -57 l30 -23 -35
15 c-19 9 -43 18 -52 21 -9 3 -19 12 -22 19 -6 18 37 0 79 -32z"/>
<path d="M2153 2413 c-7 -2 -13 -10 -13 -16 0 -14 880 -527 903 -527 8 0 20 6
26 14 16 19 75 -16 -845 513 -42 23 -49 25 -71 16z m204 -123 c87 -50 165 -94
173 -100 8 -5 103 -59 210 -121 251 -145 307 -179 295 -178 -12 0 -8 -2 -502
286 -17 10 -94 54 -170 97 -158 91 -205 121 -181 112 10 -3 89 -46 175 -96z"/>
<path d="M1040 2393 c0 -13 66 -56 218 -143 209 -120 269 -145 279 -114 5 15
-442 274 -473 274 -16 0 -24 -6 -24 -17z m100 -49 c0 -2 -9 0 -20 6 -11 6 -20
13 -20 16 0 2 9 0 20 -6 11 -6 20 -13 20 -16z m70 -40 c0 -2 -9 0 -20 6 -11 6
-20 13 -20 16 0 2 9 0 20 -6 11 -6 20 -13 20 -16z m83 -36 c4 1 7 -2 7 -6 0
-5 21 -19 48 -32 26 -13 52 -28 57 -32 6 -5 19 -15 30 -23 17 -12 17 -14 3
-15 -9 0 -18 3 -20 8 -1 4 -47 34 -100 66 -95 57 -131 84 -65 49 17 -9 35 -16
40 -15z m197 -130 c0 -6 -7 -5 -15 2 -8 7 -15 17 -15 22 0 6 7 5 15 -2 8 -7
15 -17 15 -22z"/>
<path d="M2067 2363 c-15 -14 -4 -24 86 -76 96 -57 645 -375 675 -392 10 -5
38 -22 64 -37 51 -31 93 -36 102 -13 4 10 -15 26 -62 53 -37 22 -236 136 -442
256 -344 198 -404 228 -423 209z m69 -39 c18 -14 18 -14 -6 -3 -31 14 -36 19
-24 19 6 0 19 -7 30 -16z m129 -77 c6 -6 -12 2 -40 18 -27 15 -54 32 -60 38
-5 6 13 -2 40 -18 28 -15 55 -32 60 -38z m95 -53 c0 -2 -13 2 -30 11 -16 9
-30 18 -30 21 0 2 14 -2 30 -11 17 -9 30 -18 30 -21z m50 -30 c0 -2 -9 0 -20
6 -11 6 -20 13 -20 16 0 2 9 0 20 -6 11 -6 20 -13 20 -16z m70 -40 c0 -2 -13
2 -30 11 -16 9 -30 18 -30 21 0 2 14 -2 30 -11 17 -9 30 -18 30 -21z m70 -40
c0 -2 -13 2 -30 11 -16 9 -30 18 -30 21 0 2 14 -2 30 -11 17 -9 30 -18 30 -21z
m50 -30 c0 -2 -9 0 -20 6 -11 6 -20 13 -20 16 0 2 9 0 20 -6 11 -6 20 -13 20
-16z m70 -40 c0 -2 -13 2 -30 11 -16 9 -30 18 -30 21 0 2 14 -2 30 -11 17 -9
30 -18 30 -21z m50 -30 c0 -2 -9 0 -20 6 -11 6 -20 13 -20 16 0 2 9 0 20 -6
11 -6 20 -13 20 -16z m70 -40 c0 -2 -13 2 -30 11 -16 9 -30 18 -30 21 0 2 14
-2 30 -11 17 -9 30 -18 30 -21z m70 -39 c0 -12 -29 -3 -34 10 -4 13 -2 14 14
5 11 -6 20 -13 20 -15z"/>
<path d="M1993 2323 c-7 -2 -13 -10 -13 -16 0 -14 880 -527 903 -527 8 0 20 6
26 14 16 19 75 -16 -845 513 -42 23 -49 25 -71 16z m132 -86 c6 -6 -12 2 -40
18 -27 15 -54 32 -60 38 -5 6 13 -2 40 -18 28 -15 55 -32 60 -38z m75 -43 c0
-2 -13 2 -30 11 -16 9 -30 18 -30 21 0 2 14 -2 30 -11 17 -9 30 -18 30 -21z
m115 -67 c6 -6 -12 2 -40 18 -27 15 -54 32 -60 38 -5 6 13 -2 40 -18 28 -15
55 -32 60 -38z m75 -43 c0 -2 -13 2 -30 11 -16 9 -30 18 -30 21 0 2 14 -2 30
-11 17 -9 30 -18 30 -21z m50 -30 c0 -2 -9 0 -20 6 -11 6 -20 13 -20 16 0 2 9
0 20 -6 11 -6 20 -13 20 -16z m70 -40 c0 -2 -13 2 -30 11 -16 9 -30 18 -30 21
0 2 14 -2 30 -11 17 -9 30 -18 30 -21z m115 -67 c6 -6 -12 2 -40 18 -27 15
-54 32 -60 38 -5 6 13 -2 40 -18 28 -15 55 -32 60 -38z m75 -43 c0 -2 -13 2
-30 11 -16 9 -30 18 -30 21 0 2 14 -2 30 -11 17 -9 30 -18 30 -21z m135 -76
c6 -5 -3 -3 -20 4 -39 18 -105 58 -105 65 0 6 110 -55 125 -69z m40 -26 c-3
-3 -11 0 -18 7 -9 10 -8 11 6 5 10 -3 15 -9 12 -12z"/>
<path d="M1904 2269 c-9 -15 -13 -12 216 -144 534 -308 636 -367 645 -376 15
-15 62 -10 69 6 4 11 -7 23 -37 41 -354 209 -845 484 -863 484 -12 0 -26 -5
-30 -11z m106 -55 c0 -2 -9 0 -20 6 -11 6 -20 13 -20 16 0 2 9 0 20 -6 11 -6
20 -13 20 -16z m70 -40 c0 -2 -13 2 -30 11 -16 9 -30 18 -30 21 0 2 14 -2 30
-11 17 -9 30 -18 30 -21z m70 -40 c0 -2 -13 2 -30 11 -16 9 -30 18 -30 21 0 2
14 -2 30 -11 17 -9 30 -18 30 -21z m50 -30 c0 -2 -9 0 -20 6 -11 6 -20 13 -20
16 0 2 9 0 20 -6 11 -6 20 -13 20 -16z m70 -40 c0 -2 -13 2 -30 11 -16 9 -30
18 -30 21 0 2 14 -2 30 -11 17 -9 30 -18 30 -21z m70 -40 c0 -2 -13 2 -30 11
-16 9 -30 18 -30 21 0 2 14 -2 30 -11 17 -9 30 -18 30 -21z m50 -30 c0 -2 -9
0 -20 6 -11 6 -20 13 -20 16 0 2 9 0 20 -6 11 -6 20 -13 20 -16z m70 -40 c0
-2 -13 2 -30 11 -16 9 -30 18 -30 21 0 2 14 -2 30 -11 17 -9 30 -18 30 -21z
m70 -40 c0 -2 -9 0 -20 6 -11 6 -20 13 -20 16 0 2 9 0 20 -6 11 -6 20 -13 20
-16z m70 -40 c0 -2 -13 2 -30 11 -16 9 -30 18 -30 21 0 2 14 -2 30 -11 17 -9
30 -18 30 -21z m70 -40 c0 -2 -13 2 -30 11 -16 9 -30 18 -30 21 0 2 14 -2 30
-11 17 -9 30 -18 30 -21z m101 -50 c8 -8 21 -14 28 -14 7 0 9 -5 6 -10 -7 -11
-58 14 -105 51 l-25 19 40 -16 c22 -9 47 -22 56 -30z"/>
<path d="M1824 2219 c-9 -15 -13 -12 216 -144 534 -308 636 -367 645 -376 15
-15 62 -10 69 6 4 11 -7 23 -37 41 -354 209 -845 484 -863 484 -12 0 -26 -5
-30 -11z m106 -55 c0 -2 -9 0 -20 6 -11 6 -20 13 -20 16 0 2 9 0 20 -6 11 -6
20 -13 20 -16z m70 -40 c0 -2 -13 2 -30 11 -16 9 -30 18 -30 21 0 2 14 -2 30
-11 17 -9 30 -18 30 -21z m70 -40 c0 -2 -13 2 -30 11 -16 9 -30 18 -30 21 0 2
14 -2 30 -11 17 -9 30 -18 30 -21z m50 -30 c0 -2 -9 0 -20 6 -11 6 -20 13 -20
16 0 2 9 0 20 -6 11 -6 20 -13 20 -16z m70 -40 c0 -2 -13 2 -30 11 -16 9 -30
18 -30 21 0 2 14 -2 30 -11 17 -9 30 -18 30 -21z m70 -40 c0 -2 -13 2 -30 11
-16 9 -30 18 -30 21 0 2 14 -2 30 -11 17 -9 30 -18 30 -21z m50 -30 c0 -2 -9
0 -20 6 -11 6 -20 13 -20 16 0 2 9 0 20 -6 11 -6 20 -13 20 -16z m70 -40 c0
-2 -13 2 -30 11 -16 9 -30 18 -30 21 0 2 14 -2 30 -11 17 -9 30 -18 30 -21z
m70 -40 c0 -2 -9 0 -20 6 -11 6 -20 13 -20 16 0 2 9 0 20 -6 11 -6 20 -13 20
-16z m70 -40 c0 -2 -13 2 -30 11 -16 9 -30 18 -30 21 0 2 14 -2 30 -11 17 -9
30 -18 30 -21z m70 -40 c0 -2 -13 2 -30 11 -16 9 -30 18 -30 21 0 2 14 -2 30
-11 17 -9 30 -18 30 -21z m101 -50 c8 -8 21 -14 28 -14 7 0 9 -5 6 -10 -7 -11
-58 14 -105 51 l-25 19 40 -16 c22 -9 47 -22 56 -30z"/>
<path d="M1753 2183 c-7 -2 -13 -10 -13 -16 0 -7 136 -90 303 -186 166 -96
366 -212 443 -258 78 -45 148 -83 156 -83 9 0 21 6 27 14 10 11 7 19 -10 35
-13 12 -27 21 -32 21 -5 0 -120 64 -255 142 -136 78 -323 186 -417 240 -167
97 -178 101 -202 91z m87 -59 c0 -2 -13 2 -30 11 -16 9 -30 18 -30 21 0 2 14
-2 30 -11 17 -9 30 -18 30 -21z m70 -40 c0 -2 -13 2 -30 11 -16 9 -30 18 -30
21 0 2 14 -2 30 -11 17 -9 30 -18 30 -21z m50 -30 c0 -2 -9 0 -20 6 -11 6 -20
13 -20 16 0 2 9 0 20 -6 11 -6 20 -13 20 -16z m70 -40 c0 -2 -13 2 -30 11 -16
9 -30 18 -30 21 0 2 14 -2 30 -11 17 -9 30 -18 30 -21z m115 -67 c6 -6 -12 2
-40 18 -27 15 -54 32 -60 38 -5 6 13 -2 40 -18 28 -15 55 -32 60 -38z m75 -43
c0 -2 -13 2 -30 11 -16 9 -30 18 -30 21 0 2 14 -2 30 -11 17 -9 30 -18 30 -21z
m70 -40 c0 -2 -13 2 -30 11 -16 9 -30 18 -30 21 0 2 14 -2 30 -11 17 -9 30
-18 30 -21z m70 -40 c0 -2 -13 2 -30 11 -16 9 -30 18 -30 21 0 2 14 -2 30 -11
17 -9 30 -18 30 -21z m70 -40 c0 -2 -13 2 -30 11 -16 9 -30 18 -30 21 0 2 14
-2 30 -11 17 -9 30 -18 30 -21z m115 -67 c6 -6 -12 2 -40 18 -27 15 -54 32
-60 38 -5 6 13 -2 40 -18 28 -15 55 -32 60 -38z m103 -52 c16 -17 -51 7 -71
26 l-22 20 43 -19 c23 -10 46 -22 50 -27z"/>
<path d="M1664 2129 c-3 -6 -2 -15 2 -19 5 -5 198 -118 429 -251 231 -134 422
-246 423 -251 6 -14 70 -9 75 6 4 10 -34 38 -131 94 -75 43 -275 158 -443 255
-168 97 -315 177 -327 177 -11 0 -24 -5 -28 -11z m72 -35 c18 -14 18 -14 -6
-3 -31 14 -36 19 -24 19 6 0 19 -7 30 -16z m134 -80 c0 -2 -13 2 -30 11 -16 9
-30 18 -30 21 0 2 14 -2 30 -11 17 -9 30 -18 30 -21z m310 -180 c0 -2 -9 0
-20 6 -11 6 -20 13 -20 16 0 2 9 0 20 -6 11 -6 20 -13 20 -16z m160 -86 c0 -4
-4 -8 -9 -8 -6 0 -12 4 -15 8 -3 5 1 9 9 9 8 0 15 -4 15 -9z m64 -34 c53 -29
70 -49 30 -34 -39 15 -84 43 -84 52 0 12 3 11 54 -18z m156 -96 c0 -4 -3 -8
-7 -8 -8 0 -83 51 -83 56 0 2 20 -6 45 -18 25 -12 45 -26 45 -30z"/>
<path d="M1593 2094 c-7 -3 -13 -11 -13 -18 0 -7 116 -79 258 -161 141 -82
341 -198 443 -257 102 -59 192 -108 201 -108 9 0 21 6 27 14 10 12 8 18 -11
29 -81 51 -865 501 -878 503 -8 2 -21 1 -27 -2z m100 -65 c40 -23 99 -57 132
-76 33 -19 65 -39 70 -45 11 -12 -56 25 -200 109 -49 29 -86 53 -82 53 4 0 40
-19 80 -41z m342 -202 c6 -6 -12 2 -40 18 -27 15 -54 32 -60 38 -5 6 13 -2 40
-18 28 -15 55 -32 60 -38z m75 -43 c0 -2 -13 2 -30 11 -16 9 -30 18 -30 21 0
2 14 -2 30 -11 17 -9 30 -18 30 -21z m115 -67 c6 -6 -12 2 -40 18 -27 15 -54
32 -60 38 -5 6 13 -2 40 -18 28 -15 55 -32 60 -38z m75 -43 c0 -2 -13 2 -30
11 -16 9 -30 18 -30 21 0 2 14 -2 30 -11 17 -9 30 -18 30 -21z m50 -30 c0 -2
-9 0 -20 6 -11 6 -20 13 -20 16 0 2 9 0 20 -6 11 -6 20 -13 20 -16z m70 -40
c0 -2 -13 2 -30 11 -16 9 -30 18 -30 21 0 2 14 -2 30 -11 17 -9 30 -18 30 -21z
m64 -35 c-6 -11 -42 1 -48 16 -3 10 2 10 24 2 16 -6 27 -14 24 -18z"/>
<path d="M3283 1934 c-3 -8 -2 -19 3 -24 5 -4 107 -65 228 -135 213 -123 257
-140 264 -105 2 11 -66 56 -226 148 -126 73 -236 132 -246 132 -9 0 -19 -7
-23 -16z m177 -100 c0 -2 -13 2 -30 11 -16 9 -30 18 -30 21 0 2 14 -2 30 -11
17 -9 30 -18 30 -21z m50 -30 c0 -2 -9 0 -20 6 -11 6 -20 13 -20 16 0 2 9 0
20 -6 11 -6 20 -13 20 -16z m35 -22 c-3 -3 -11 0 -18 7 -9 10 -8 11 6 5 10 -3
15 -9 12 -12z m105 -58 c0 -2 -9 0 -20 6 -11 6 -20 13 -20 16 0 2 9 0 20 -6
11 -6 20 -13 20 -16z"/>
<path d="M3203 1884 c-7 -19 -28 -5 239 -160 162 -93 223 -124 238 -119 12 4
20 13 18 22 -4 19 -436 272 -466 273 -12 0 -25 -7 -29 -16z m97 -50 c0 -2 -13
2 -30 11 -16 9 -30 18 -30 21 0 2 14 -2 30 -11 17 -9 30 -18 30 -21z m115 -67
c6 -6 -12 2 -40 18 -27 15 -54 32 -60 38 -5 6 13 -2 40 -18 28 -15 55 -32 60
-38z m138 -74 c42 -25 77 -47 77 -50 0 -3 -19 6 -42 20 -24 13 -69 39 -100 57
-32 17 -58 34 -58 36 0 6 23 -6 123 -63z m112 -71 c-3 -3 -11 0 -18 7 -9 10
-8 11 6 5 10 -3 15 -9 12 -12z"/>
<path d="M3117 1853 c-19 -18 5 -38 131 -109 75 -42 179 -101 231 -131 94 -54
133 -63 139 -32 3 16 -98 79 -275 172 -28 15 -82 45 -120 67 -66 39 -93 47
-106 33z m123 -79 c0 -2 -9 0 -20 6 -11 6 -20 13 -20 16 0 2 9 0 20 -6 11 -6
20 -13 20 -16z m178 -91 c50 -30 51 -43 1 -15 -19 10 -64 35 -101 56 -38 21
-68 40 -68 42 0 5 108 -48 168 -83z m167 -101 c-4 -5 -115 57 -115 64 0 3 27
-10 59 -28 33 -18 58 -34 56 -36z"/>
<path d="M3043 1794 c-3 -8 -2 -19 3 -23 5 -5 108 -65 228 -135 215 -125 261
-143 261 -103 0 13 -62 54 -225 148 -124 71 -233 129 -243 129 -10 0 -20 -7
-24 -16z m127 -70 c0 -2 -9 0 -20 6 -11 6 -20 13 -20 16 0 2 9 0 20 -6 11 -6
20 -13 20 -16z m133 -71 c42 -25 77 -47 77 -50 0 -3 -19 6 -42 20 -24 13 -69
39 -100 57 -32 17 -58 34 -58 36 0 6 23 -6 123 -63z m202 -121 c-4 -5 -115 57
-115 64 0 3 27 -10 59 -28 33 -18 58 -34 56 -36z"/>
<path d="M2963 1745 c-3 -9 -4 -17 -2 -19 2 -2 102 -60 222 -130 144 -83 229
-126 248 -126 41 0 37 25 -8 53 -131 82 -414 237 -432 237 -12 0 -24 -7 -28
-15z m116 -56 c39 -22 71 -43 71 -46 0 -4 -97 49 -135 74 -41 27 -4 12 64 -28z
m141 -85 c0 -2 -13 2 -30 11 -16 9 -30 18 -30 21 0 2 14 -2 30 -11 17 -9 30
-18 30 -21z m115 -67 c6 -6 -12 2 -40 18 -27 15 -54 32 -60 38 -5 6 13 -2 40
-18 28 -15 55 -32 60 -38z m75 -43 c0 -2 -13 2 -30 11 -16 9 -30 18 -30 21 0
2 14 -2 30 -11 17 -9 30 -18 30 -21z"/>
<path d="M2891 1711 c-8 -5 -11 -15 -9 -22 9 -23 446 -271 471 -267 58 8 25
35 -202 166 -127 73 -234 132 -238 132 -4 0 -14 -4 -22 -9z m59 -38 l25 -26
-32 17 c-18 9 -33 21 -33 26 0 17 14 11 40 -17z m110 -69 c0 -2 -13 2 -30 11
-16 9 -30 18 -30 21 0 2 14 -2 30 -11 17 -9 30 -18 30 -21z m75 -44 c3 -5 -10
-1 -29 11 -20 12 -36 23 -36 25 0 7 58 -25 65 -36z m40 -20 c3 -6 -1 -7 -9 -4
-18 7 -21 14 -7 14 6 0 13 -4 16 -10z m175 -100 c0 -5 -2 -10 -4 -10 -3 0 -8
5 -11 10 -3 6 -1 10 4 10 6 0 11 -4 11 -10z"/>
<path d="M2803 1655 c-3 -9 -3 -18 0 -21 13 -13 452 -264 462 -264 19 0 38 18
33 31 -8 19 -443 269 -468 269 -11 0 -23 -7 -27 -15z m57 -16 c0 -5 14 -15 30
-20 17 -6 30 -15 30 -20 0 -5 5 -9 10 -9 6 0 35 -15 64 -34 29 -18 62 -37 74
-40 20 -7 32 -27 15 -26 -19 2 -253 143 -253 153 0 4 7 7 15 7 8 0 15 -5 15
-11z m320 -189 c63 -37 92 -60 74 -60 -13 0 -154 85 -154 93 0 12 9 8 80 -33z"/>
<path d="M2722 1603 c3 -17 40 -41 299 -189 141 -81 180 -96 195 -73 10 18
-10 31 -231 158 -207 120 -271 145 -263 104z m48 -14 c0 -5 -4 -9 -10 -9 -5 0
-10 7 -10 16 0 8 5 12 10 9 6 -3 10 -10 10 -16z m90 -55 c0 -2 -9 0 -20 6 -11
6 -20 13 -20 16 0 2 9 0 20 -6 11 -6 20 -13 20 -16z m50 -30 c0 -2 -9 0 -20 6
-11 6 -20 13 -20 16 0 2 9 0 20 -6 11 -6 20 -13 20 -16z m70 -40 c0 -2 -9 0
-20 6 -11 6 -20 13 -20 16 0 2 9 0 20 -6 11 -6 20 -13 20 -16z m70 -40 c0 -2
-13 2 -30 11 -16 9 -30 18 -30 21 0 2 14 -2 30 -11 17 -9 30 -18 30 -21z m70
-40 c0 -2 -9 0 -20 6 -11 6 -20 13 -20 16 0 2 9 0 20 -6 11 -6 20 -13 20 -16z"/>
<path d="M2651 1571 c-7 -5 -12 -14 -9 -21 2 -6 104 -70 227 -141 219 -127
266 -146 266 -107 0 13 -68 57 -225 148 -124 71 -229 130 -235 130 -5 0 -16
-4 -24 -9z m42 -25 c4 -10 1 -13 -9 -9 -15 6 -19 23 -5 23 5 0 11 -7 14 -14z
m77 -52 c0 -2 -13 2 -30 11 -16 9 -30 18 -30 21 0 2 14 -2 30 -11 17 -9 30
-18 30 -21z m115 -67 c6 -6 -12 2 -40 18 -27 15 -54 32 -60 38 -5 6 13 -2 40
-18 28 -15 55 -32 60 -38z m140 -80 c6 -6 -17 4 -50 22 -33 18 -64 38 -70 44
-5 5 17 -5 50 -23 33 -18 65 -38 70 -43z m75 -43 c0 -2 -13 2 -30 11 -16 9
-30 18 -30 21 0 2 14 -2 30 -11 17 -9 30 -18 30 -21z"/>
<path d="M2563 1515 c-3 -9 -4 -17 -2 -19 31 -26 450 -258 467 -258 28 -1 36
7 29 25 -7 19 -440 267 -466 267 -12 0 -24 -7 -28 -15z m47 -17 c0 -13 -23 -5
-28 10 -2 7 2 10 12 6 9 -3 16 -11 16 -16z m190 -114 c0 -2 -9 0 -20 6 -11 6
-20 13 -20 16 0 2 9 0 20 -6 11 -6 20 -13 20 -16z m210 -120 c0 -2 -13 2 -30
11 -16 9 -30 18 -30 21 0 2 14 -2 30 -11 17 -9 30 -18 30 -21z"/>
</g>
</svg>
